<mxfile host="app.diagrams.net" modified="2024-04-19T09:03:38.286Z" agent="Mozilla/5.0 (Windows NT 10.0; Win64; x64) AppleWebKit/537.36 (KHTML, like Gecko) Chrome/125.0.0.0 Safari/537.36" etag="nPFZ9IZGZ8RgR6Ko3beC" version="24.2.5" type="github">
  <diagram id="BdT-KMvt7vkJmKzZMGRt" name="Page-1">
    <mxGraphModel dx="1434" dy="738" grid="1" gridSize="10" guides="1" tooltips="1" connect="1" arrows="1" fold="1" page="1" pageScale="1" pageWidth="827" pageHeight="1169" math="0" shadow="0">
      <root>
        <mxCell id="0" />
        <mxCell id="1" parent="0" />
        <mxCell id="h4Tk04VMiY0GWhx75XCe-164" value="&lt;b&gt;一、&lt;/b&gt;最初经营好茶楼是生存之本。（做好服务，提供牌娱，做好成本核算）。&lt;br&gt;&amp;nbsp; &amp;nbsp; &amp;nbsp; &amp;nbsp;茶楼的推广和吸客除了简单的棋牌娱乐之外，应该提供更多有价值的消费体验&lt;br&gt;&amp;nbsp; &amp;nbsp; &amp;nbsp;（尝试引导消费者进行：产生有经济价值的项目研讨会）&lt;br&gt;&amp;nbsp; &amp;nbsp; &amp;nbsp; &amp;nbsp;所以要给传统茶需楼配置商务室及项目宣讲所需要的硬件设备，还有宣讲人这类软实力。" style="text;html=1;align=left;verticalAlign=middle;resizable=0;points=[];;autosize=1;" parent="1" vertex="1">
          <mxGeometry x="123" y="420" width="510" height="60" as="geometry" />
        </mxCell>
        <mxCell id="h4Tk04VMiY0GWhx75XCe-165" value="&lt;b&gt;&lt;font style=&quot;vertical-align: inherit&quot;&gt;&lt;font style=&quot;vertical-align: inherit&quot;&gt;面向商务的茶楼或coffee厅经营方案：&lt;/font&gt;&lt;/font&gt;&lt;/b&gt;" style="text;html=1;align=center;verticalAlign=middle;resizable=0;points=[];;autosize=1;" parent="1" vertex="1">
          <mxGeometry x="45" y="390" width="220" height="20" as="geometry" />
        </mxCell>
        <mxCell id="h4Tk04VMiY0GWhx75XCe-166" value="&lt;b&gt;三、&lt;/b&gt;当项目不可承接的时候，在茶楼经营到一定时期有资金冗余，同样可以组件软件开发团队。&lt;br&gt;&lt;div style=&quot;text-align: left&quot;&gt;&lt;span&gt;&amp;nbsp; &amp;nbsp; &amp;nbsp; &amp;nbsp;组件软件开发团队的优势在于保障茶楼后续经营的可持续性，从单纯的茶楼服务性行业，&lt;/span&gt;&lt;/div&gt;&lt;div style=&quot;text-align: left&quot;&gt;&lt;span&gt;&amp;nbsp; &amp;nbsp; &amp;nbsp; &amp;nbsp;转向技术驱动型的一种新型的能创造价值的休闲会所 ．&lt;/span&gt;&lt;/div&gt;" style="text;html=1;align=center;verticalAlign=middle;resizable=0;points=[];;autosize=1;" parent="1" vertex="1">
          <mxGeometry x="115" y="570" width="520" height="50" as="geometry" />
        </mxCell>
        <mxCell id="h4Tk04VMiY0GWhx75XCe-167" value="" style="group" parent="1" vertex="1" connectable="0">
          <mxGeometry x="50" y="77" width="675" height="305" as="geometry" />
        </mxCell>
        <mxCell id="h4Tk04VMiY0GWhx75XCe-3" value="" style="rounded=0;whiteSpace=wrap;html=1;" parent="h4Tk04VMiY0GWhx75XCe-167" vertex="1">
          <mxGeometry width="650" height="160" as="geometry" />
        </mxCell>
        <mxCell id="h4Tk04VMiY0GWhx75XCe-4" value="&lt;span style=&quot;color: rgba(0 , 0 , 0 , 0) ; font-family: monospace ; font-size: 0px&quot;&gt;%3CmxGraphModel%3E%3Croot%3E%3CmxCell%20id%3D%220%22%2F%3E%3CmxCell%20id%3D%221%22%20parent%3D%220%22%2F%3E%3CmxCell%20id%3D%222%22%20value%3D%22%22%20style%3D%22rounded%3D0%3BwhiteSpace%3Dwrap%3Bhtml%3D1%3B%22%20vertex%3D%221%22%20parent%3D%221%22%3E%3CmxGeometry%20x%3D%2275%22%20y%3D%22195%22%20width%3D%2220%22%20height%3D%2245%22%20as%3D%22geometry%22%2F%3E%3C%2FmxCell%3E%3C%2Froot%3E%3C%2FmxGraphModel%3E&lt;/span&gt;" style="rounded=0;whiteSpace=wrap;html=1;" parent="h4Tk04VMiY0GWhx75XCe-167" vertex="1">
          <mxGeometry y="155" width="650" height="150" as="geometry" />
        </mxCell>
        <mxCell id="h4Tk04VMiY0GWhx75XCe-5" value="&lt;b&gt;1楼 茶楼酒吧休闲场所&lt;/b&gt;" style="text;html=1;align=center;verticalAlign=middle;resizable=0;points=[];;autosize=1;fontSize=15;" parent="h4Tk04VMiY0GWhx75XCe-167" vertex="1">
          <mxGeometry x="235" y="280" width="160" height="20" as="geometry" />
        </mxCell>
        <mxCell id="h4Tk04VMiY0GWhx75XCe-6" value="&lt;font style=&quot;font-size: 15px&quot;&gt;&lt;b&gt;2楼 软件开发及项目承接&lt;/b&gt;&lt;/font&gt;" style="text;html=1;align=center;verticalAlign=middle;resizable=0;points=[];;autosize=1;" parent="h4Tk04VMiY0GWhx75XCe-167" vertex="1">
          <mxGeometry x="242" y="129" width="180" height="20" as="geometry" />
        </mxCell>
        <mxCell id="h4Tk04VMiY0GWhx75XCe-17" value="&lt;b&gt;测试&lt;/b&gt;" style="pointerEvents=1;shadow=0;dashed=0;html=1;strokeColor=none;fillColor=#505050;labelPosition=center;verticalLabelPosition=bottom;verticalAlign=top;outlineConnect=0;align=center;shape=mxgraph.office.devices.tv;" parent="h4Tk04VMiY0GWhx75XCe-167" vertex="1">
          <mxGeometry x="20" y="90" width="30" height="20" as="geometry" />
        </mxCell>
        <mxCell id="h4Tk04VMiY0GWhx75XCe-18" value="&lt;b&gt;后台&lt;/b&gt;" style="pointerEvents=1;shadow=0;dashed=0;html=1;strokeColor=none;fillColor=#505050;labelPosition=center;verticalLabelPosition=bottom;verticalAlign=top;outlineConnect=0;align=center;shape=mxgraph.office.devices.tv;" parent="h4Tk04VMiY0GWhx75XCe-167" vertex="1">
          <mxGeometry x="60" y="90" width="30" height="20" as="geometry" />
        </mxCell>
        <mxCell id="h4Tk04VMiY0GWhx75XCe-19" value="&lt;b&gt;web端&lt;/b&gt;" style="pointerEvents=1;shadow=0;dashed=0;html=1;strokeColor=none;fillColor=#505050;labelPosition=center;verticalLabelPosition=bottom;verticalAlign=top;outlineConnect=0;align=center;shape=mxgraph.office.devices.tv;" parent="h4Tk04VMiY0GWhx75XCe-167" vertex="1">
          <mxGeometry x="100" y="89" width="30" height="20" as="geometry" />
        </mxCell>
        <mxCell id="h4Tk04VMiY0GWhx75XCe-20" value="&lt;b&gt;移动端&lt;/b&gt;" style="pointerEvents=1;shadow=0;dashed=0;html=1;strokeColor=none;fillColor=#505050;labelPosition=center;verticalLabelPosition=bottom;verticalAlign=top;outlineConnect=0;align=center;shape=mxgraph.office.devices.tv;" parent="h4Tk04VMiY0GWhx75XCe-167" vertex="1">
          <mxGeometry x="140" y="89" width="30" height="20" as="geometry" />
        </mxCell>
        <mxCell id="h4Tk04VMiY0GWhx75XCe-21" value="" style="pointerEvents=1;shadow=0;dashed=0;html=1;strokeColor=none;fillColor=#505050;labelPosition=center;verticalLabelPosition=bottom;verticalAlign=top;outlineConnect=0;align=center;shape=mxgraph.office.devices.tv;" parent="h4Tk04VMiY0GWhx75XCe-167" vertex="1">
          <mxGeometry x="60" y="130" width="30" height="20" as="geometry" />
        </mxCell>
        <mxCell id="h4Tk04VMiY0GWhx75XCe-22" value="&lt;b&gt;UI&lt;/b&gt;" style="pointerEvents=1;shadow=0;dashed=0;html=1;strokeColor=none;fillColor=#505050;labelPosition=center;verticalLabelPosition=bottom;verticalAlign=top;outlineConnect=0;align=center;shape=mxgraph.office.devices.tv;" parent="h4Tk04VMiY0GWhx75XCe-167" vertex="1">
          <mxGeometry x="180" y="90" width="30" height="20" as="geometry" />
        </mxCell>
        <mxCell id="h4Tk04VMiY0GWhx75XCe-23" value="" style="pointerEvents=1;shadow=0;dashed=0;html=1;strokeColor=none;fillColor=#505050;labelPosition=center;verticalLabelPosition=bottom;verticalAlign=top;outlineConnect=0;align=center;shape=mxgraph.office.devices.tv;" parent="h4Tk04VMiY0GWhx75XCe-167" vertex="1">
          <mxGeometry x="180" y="130" width="30" height="20" as="geometry" />
        </mxCell>
        <mxCell id="h4Tk04VMiY0GWhx75XCe-24" value="" style="pointerEvents=1;shadow=0;dashed=0;html=1;strokeColor=none;fillColor=#505050;labelPosition=center;verticalLabelPosition=bottom;verticalAlign=top;outlineConnect=0;align=center;shape=mxgraph.office.devices.tv;" parent="h4Tk04VMiY0GWhx75XCe-167" vertex="1">
          <mxGeometry x="140" y="130" width="30" height="20" as="geometry" />
        </mxCell>
        <mxCell id="h4Tk04VMiY0GWhx75XCe-25" value="" style="pointerEvents=1;shadow=0;dashed=0;html=1;strokeColor=none;fillColor=#505050;labelPosition=center;verticalLabelPosition=bottom;verticalAlign=top;outlineConnect=0;align=center;shape=mxgraph.office.devices.tv;" parent="h4Tk04VMiY0GWhx75XCe-167" vertex="1">
          <mxGeometry x="100" y="130" width="30" height="20" as="geometry" />
        </mxCell>
        <mxCell id="h4Tk04VMiY0GWhx75XCe-26" value="" style="pointerEvents=1;shadow=0;dashed=0;html=1;strokeColor=none;fillColor=#505050;labelPosition=center;verticalLabelPosition=bottom;verticalAlign=top;outlineConnect=0;align=center;shape=mxgraph.office.devices.tv;" parent="h4Tk04VMiY0GWhx75XCe-167" vertex="1">
          <mxGeometry x="20" y="130" width="30" height="20" as="geometry" />
        </mxCell>
        <mxCell id="h4Tk04VMiY0GWhx75XCe-47" value="开发人员茶水间及休闲区" style="verticalLabelPosition=bottom;verticalAlign=top;html=1;shape=mxgraph.flowchart.parallel_mode;pointerEvents=1" parent="h4Tk04VMiY0GWhx75XCe-167" vertex="1">
          <mxGeometry x="252" y="34" width="160" height="20" as="geometry" />
        </mxCell>
        <mxCell id="h4Tk04VMiY0GWhx75XCe-49" value="" style="rounded=1;whiteSpace=wrap;html=1;fillColor=#fff2cc;strokeColor=#d6b656;" parent="h4Tk04VMiY0GWhx75XCe-167" vertex="1">
          <mxGeometry x="10" y="170" width="140" height="60" as="geometry" />
        </mxCell>
        <mxCell id="h4Tk04VMiY0GWhx75XCe-50" value="" style="ellipse;whiteSpace=wrap;html=1;aspect=fixed;fillColor=#dae8fc;strokeColor=#6c8ebf;" parent="h4Tk04VMiY0GWhx75XCe-167" vertex="1">
          <mxGeometry x="40" y="180" width="40" height="40" as="geometry" />
        </mxCell>
        <mxCell id="h4Tk04VMiY0GWhx75XCe-51" value="" style="rounded=0;whiteSpace=wrap;html=1;fillColor=#DAE8FC;strokeColor=#6c8ebf;" parent="h4Tk04VMiY0GWhx75XCe-167" vertex="1">
          <mxGeometry x="15" y="175" width="20" height="45" as="geometry" />
        </mxCell>
        <mxCell id="h4Tk04VMiY0GWhx75XCe-62" value="" style="rounded=0;whiteSpace=wrap;html=1;fillColor=#DAE8FC;strokeColor=#6c8ebf;" parent="h4Tk04VMiY0GWhx75XCe-167" vertex="1">
          <mxGeometry x="80" y="175" width="20" height="13" as="geometry" />
        </mxCell>
        <mxCell id="h4Tk04VMiY0GWhx75XCe-65" value="" style="rounded=0;whiteSpace=wrap;html=1;fillColor=#dae8fc;strokeColor=#6c8ebf;" parent="h4Tk04VMiY0GWhx75XCe-167" vertex="1">
          <mxGeometry x="80" y="198" width="10" height="13" as="geometry" />
        </mxCell>
        <mxCell id="h4Tk04VMiY0GWhx75XCe-66" value="" style="rounded=0;whiteSpace=wrap;html=1;fillColor=#dae8fc;strokeColor=#6c8ebf;" parent="h4Tk04VMiY0GWhx75XCe-167" vertex="1">
          <mxGeometry x="97" y="209" width="10" height="13" as="geometry" />
        </mxCell>
        <mxCell id="h4Tk04VMiY0GWhx75XCe-67" value="" style="rounded=1;whiteSpace=wrap;html=1;fillColor=#ffe6cc;strokeColor=#d79b00;" parent="h4Tk04VMiY0GWhx75XCe-167" vertex="1">
          <mxGeometry x="188" y="170" width="152" height="60" as="geometry" />
        </mxCell>
        <mxCell id="h4Tk04VMiY0GWhx75XCe-68" value="" style="ellipse;whiteSpace=wrap;html=1;aspect=fixed;fillColor=#dae8fc;strokeColor=#6c8ebf;" parent="h4Tk04VMiY0GWhx75XCe-167" vertex="1">
          <mxGeometry x="217.5" y="180" width="40" height="40" as="geometry" />
        </mxCell>
        <mxCell id="h4Tk04VMiY0GWhx75XCe-69" value="" style="rounded=0;whiteSpace=wrap;html=1;fillColor=#dae8fc;strokeColor=#6c8ebf;" parent="h4Tk04VMiY0GWhx75XCe-167" vertex="1">
          <mxGeometry x="192.5" y="175" width="20" height="45" as="geometry" />
        </mxCell>
        <mxCell id="h4Tk04VMiY0GWhx75XCe-70" value="" style="rounded=0;whiteSpace=wrap;html=1;fillColor=#dae8fc;strokeColor=#6c8ebf;" parent="h4Tk04VMiY0GWhx75XCe-167" vertex="1">
          <mxGeometry x="257.5" y="175" width="20" height="13" as="geometry" />
        </mxCell>
        <mxCell id="h4Tk04VMiY0GWhx75XCe-71" value="" style="rounded=0;whiteSpace=wrap;html=1;fillColor=#dae8fc;strokeColor=#6c8ebf;" parent="h4Tk04VMiY0GWhx75XCe-167" vertex="1">
          <mxGeometry x="257.5" y="198" width="10" height="13" as="geometry" />
        </mxCell>
        <mxCell id="h4Tk04VMiY0GWhx75XCe-72" value="" style="rounded=0;whiteSpace=wrap;html=1;fillColor=#dae8fc;strokeColor=#6c8ebf;" parent="h4Tk04VMiY0GWhx75XCe-167" vertex="1">
          <mxGeometry x="274.5" y="209" width="10" height="13" as="geometry" />
        </mxCell>
        <mxCell id="h4Tk04VMiY0GWhx75XCe-73" value="" style="rounded=1;whiteSpace=wrap;html=1;fillColor=#ffe6cc;strokeColor=#d79b00;" parent="h4Tk04VMiY0GWhx75XCe-167" vertex="1">
          <mxGeometry x="380" y="170" width="150" height="60" as="geometry" />
        </mxCell>
        <mxCell id="h4Tk04VMiY0GWhx75XCe-74" value="" style="ellipse;whiteSpace=wrap;html=1;aspect=fixed;fillColor=#dae8fc;strokeColor=#6c8ebf;" parent="h4Tk04VMiY0GWhx75XCe-167" vertex="1">
          <mxGeometry x="410" y="180" width="40" height="40" as="geometry" />
        </mxCell>
        <mxCell id="h4Tk04VMiY0GWhx75XCe-75" value="" style="rounded=0;whiteSpace=wrap;html=1;fillColor=#dae8fc;strokeColor=#6c8ebf;" parent="h4Tk04VMiY0GWhx75XCe-167" vertex="1">
          <mxGeometry x="385" y="175" width="20" height="45" as="geometry" />
        </mxCell>
        <mxCell id="h4Tk04VMiY0GWhx75XCe-76" value="" style="rounded=0;whiteSpace=wrap;html=1;fillColor=#dae8fc;strokeColor=#6c8ebf;" parent="h4Tk04VMiY0GWhx75XCe-167" vertex="1">
          <mxGeometry x="450" y="175" width="20" height="13" as="geometry" />
        </mxCell>
        <mxCell id="h4Tk04VMiY0GWhx75XCe-77" value="" style="rounded=0;whiteSpace=wrap;html=1;fillColor=#dae8fc;strokeColor=#6c8ebf;" parent="h4Tk04VMiY0GWhx75XCe-167" vertex="1">
          <mxGeometry x="450" y="198" width="10" height="13" as="geometry" />
        </mxCell>
        <mxCell id="h4Tk04VMiY0GWhx75XCe-78" value="" style="rounded=0;whiteSpace=wrap;html=1;fillColor=#dae8fc;strokeColor=#6c8ebf;" parent="h4Tk04VMiY0GWhx75XCe-167" vertex="1">
          <mxGeometry x="467" y="209" width="10" height="13" as="geometry" />
        </mxCell>
        <mxCell id="h4Tk04VMiY0GWhx75XCe-89" value="" style="rounded=0;whiteSpace=wrap;html=1;fillColor=#dae8fc;strokeColor=#6c8ebf;" parent="h4Tk04VMiY0GWhx75XCe-167" vertex="1">
          <mxGeometry x="66" y="268" width="10" height="13" as="geometry" />
        </mxCell>
        <mxCell id="h4Tk04VMiY0GWhx75XCe-90" value="" style="rounded=0;whiteSpace=wrap;html=1;fillColor=#dae8fc;strokeColor=#6c8ebf;" parent="h4Tk04VMiY0GWhx75XCe-167" vertex="1">
          <mxGeometry x="25" y="268" width="10" height="13" as="geometry" />
        </mxCell>
        <mxCell id="h4Tk04VMiY0GWhx75XCe-91" value="" style="rounded=0;whiteSpace=wrap;html=1;fillColor=#dae8fc;strokeColor=#6c8ebf;" parent="h4Tk04VMiY0GWhx75XCe-167" vertex="1">
          <mxGeometry x="45" y="290" width="10" height="10" as="geometry" />
        </mxCell>
        <mxCell id="h4Tk04VMiY0GWhx75XCe-94" value="" style="rounded=0;whiteSpace=wrap;html=1;fillColor=#dae8fc;strokeColor=#6c8ebf;" parent="h4Tk04VMiY0GWhx75XCe-167" vertex="1">
          <mxGeometry x="46" y="249" width="10" height="10" as="geometry" />
        </mxCell>
        <mxCell id="h4Tk04VMiY0GWhx75XCe-96" value="" style="rounded=0;whiteSpace=wrap;html=1;fillColor=#dae8fc;strokeColor=#6c8ebf;" parent="h4Tk04VMiY0GWhx75XCe-167" vertex="1">
          <mxGeometry x="184" y="267" width="10" height="13" as="geometry" />
        </mxCell>
        <mxCell id="h4Tk04VMiY0GWhx75XCe-97" value="" style="rounded=0;whiteSpace=wrap;html=1;fillColor=#dae8fc;strokeColor=#6c8ebf;" parent="h4Tk04VMiY0GWhx75XCe-167" vertex="1">
          <mxGeometry x="143" y="267" width="10" height="13" as="geometry" />
        </mxCell>
        <mxCell id="h4Tk04VMiY0GWhx75XCe-98" value="" style="rounded=0;whiteSpace=wrap;html=1;fillColor=#dae8fc;strokeColor=#6c8ebf;" parent="h4Tk04VMiY0GWhx75XCe-167" vertex="1">
          <mxGeometry x="163" y="289" width="10" height="10" as="geometry" />
        </mxCell>
        <mxCell id="h4Tk04VMiY0GWhx75XCe-99" value="" style="rounded=0;whiteSpace=wrap;html=1;fillColor=#dae8fc;strokeColor=#6c8ebf;" parent="h4Tk04VMiY0GWhx75XCe-167" vertex="1">
          <mxGeometry x="164" y="248" width="10" height="10" as="geometry" />
        </mxCell>
        <mxCell id="h4Tk04VMiY0GWhx75XCe-100" value="卡座" style="ellipse;whiteSpace=wrap;html=1;aspect=fixed;fillColor=#dae8fc;strokeColor=#6c8ebf;" parent="h4Tk04VMiY0GWhx75XCe-167" vertex="1">
          <mxGeometry x="149" y="254" width="40" height="40" as="geometry" />
        </mxCell>
        <mxCell id="h4Tk04VMiY0GWhx75XCe-88" value="卡座" style="ellipse;whiteSpace=wrap;html=1;aspect=fixed;fillColor=#dae8fc;strokeColor=#6c8ebf;" parent="h4Tk04VMiY0GWhx75XCe-167" vertex="1">
          <mxGeometry x="30" y="255" width="40" height="40" as="geometry" />
        </mxCell>
        <mxCell id="h4Tk04VMiY0GWhx75XCe-101" value="" style="rounded=0;whiteSpace=wrap;html=1;fillColor=#dae8fc;strokeColor=#6c8ebf;" parent="h4Tk04VMiY0GWhx75XCe-167" vertex="1">
          <mxGeometry x="472" y="268" width="10" height="13" as="geometry" />
        </mxCell>
        <mxCell id="h4Tk04VMiY0GWhx75XCe-102" value="" style="rounded=0;whiteSpace=wrap;html=1;fillColor=#dae8fc;strokeColor=#6c8ebf;" parent="h4Tk04VMiY0GWhx75XCe-167" vertex="1">
          <mxGeometry x="431" y="268" width="10" height="13" as="geometry" />
        </mxCell>
        <mxCell id="h4Tk04VMiY0GWhx75XCe-103" value="" style="rounded=0;whiteSpace=wrap;html=1;fillColor=#dae8fc;strokeColor=#6c8ebf;" parent="h4Tk04VMiY0GWhx75XCe-167" vertex="1">
          <mxGeometry x="451" y="290" width="10" height="10" as="geometry" />
        </mxCell>
        <mxCell id="h4Tk04VMiY0GWhx75XCe-104" value="" style="rounded=0;whiteSpace=wrap;html=1;fillColor=#dae8fc;strokeColor=#6c8ebf;" parent="h4Tk04VMiY0GWhx75XCe-167" vertex="1">
          <mxGeometry x="452" y="249" width="10" height="10" as="geometry" />
        </mxCell>
        <mxCell id="h4Tk04VMiY0GWhx75XCe-105" value="卡座" style="ellipse;whiteSpace=wrap;html=1;aspect=fixed;fillColor=#dae8fc;strokeColor=#6c8ebf;" parent="h4Tk04VMiY0GWhx75XCe-167" vertex="1">
          <mxGeometry x="437" y="255" width="40" height="40" as="geometry" />
        </mxCell>
        <mxCell id="h4Tk04VMiY0GWhx75XCe-111" value="" style="rounded=0;whiteSpace=wrap;html=1;fillColor=#dae8fc;strokeColor=#6c8ebf;" parent="h4Tk04VMiY0GWhx75XCe-167" vertex="1">
          <mxGeometry x="585" y="266" width="10" height="13" as="geometry" />
        </mxCell>
        <mxCell id="h4Tk04VMiY0GWhx75XCe-112" value="" style="rounded=0;whiteSpace=wrap;html=1;fillColor=#dae8fc;strokeColor=#6c8ebf;" parent="h4Tk04VMiY0GWhx75XCe-167" vertex="1">
          <mxGeometry x="544" y="266" width="10" height="13" as="geometry" />
        </mxCell>
        <mxCell id="h4Tk04VMiY0GWhx75XCe-113" value="" style="rounded=0;whiteSpace=wrap;html=1;fillColor=#dae8fc;strokeColor=#6c8ebf;" parent="h4Tk04VMiY0GWhx75XCe-167" vertex="1">
          <mxGeometry x="564" y="288" width="10" height="10" as="geometry" />
        </mxCell>
        <mxCell id="h4Tk04VMiY0GWhx75XCe-114" value="" style="rounded=0;whiteSpace=wrap;html=1;fillColor=#dae8fc;strokeColor=#6c8ebf;" parent="h4Tk04VMiY0GWhx75XCe-167" vertex="1">
          <mxGeometry x="565" y="247" width="10" height="10" as="geometry" />
        </mxCell>
        <mxCell id="h4Tk04VMiY0GWhx75XCe-115" value="卡座" style="ellipse;whiteSpace=wrap;html=1;aspect=fixed;fillColor=#dae8fc;strokeColor=#6c8ebf;" parent="h4Tk04VMiY0GWhx75XCe-167" vertex="1">
          <mxGeometry x="550" y="253" width="40" height="40" as="geometry" />
        </mxCell>
        <mxCell id="h4Tk04VMiY0GWhx75XCe-126" value="&lt;b&gt;测试&lt;/b&gt;" style="pointerEvents=1;shadow=0;dashed=0;html=1;strokeColor=none;fillColor=#505050;labelPosition=center;verticalLabelPosition=bottom;verticalAlign=top;outlineConnect=0;align=center;shape=mxgraph.office.devices.tv;" parent="h4Tk04VMiY0GWhx75XCe-167" vertex="1">
          <mxGeometry x="20" y="4" width="30" height="20" as="geometry" />
        </mxCell>
        <mxCell id="h4Tk04VMiY0GWhx75XCe-127" value="&lt;b&gt;后台&lt;/b&gt;" style="pointerEvents=1;shadow=0;dashed=0;html=1;strokeColor=none;fillColor=#505050;labelPosition=center;verticalLabelPosition=bottom;verticalAlign=top;outlineConnect=0;align=center;shape=mxgraph.office.devices.tv;" parent="h4Tk04VMiY0GWhx75XCe-167" vertex="1">
          <mxGeometry x="60" y="4" width="30" height="20" as="geometry" />
        </mxCell>
        <mxCell id="h4Tk04VMiY0GWhx75XCe-128" value="&lt;b&gt;web端&lt;/b&gt;" style="pointerEvents=1;shadow=0;dashed=0;html=1;strokeColor=none;fillColor=#505050;labelPosition=center;verticalLabelPosition=bottom;verticalAlign=top;outlineConnect=0;align=center;shape=mxgraph.office.devices.tv;" parent="h4Tk04VMiY0GWhx75XCe-167" vertex="1">
          <mxGeometry x="100" y="3" width="30" height="20" as="geometry" />
        </mxCell>
        <mxCell id="h4Tk04VMiY0GWhx75XCe-129" value="&lt;b&gt;移动端&lt;/b&gt;" style="pointerEvents=1;shadow=0;dashed=0;html=1;strokeColor=none;fillColor=#505050;labelPosition=center;verticalLabelPosition=bottom;verticalAlign=top;outlineConnect=0;align=center;shape=mxgraph.office.devices.tv;" parent="h4Tk04VMiY0GWhx75XCe-167" vertex="1">
          <mxGeometry x="140" y="3" width="30" height="20" as="geometry" />
        </mxCell>
        <mxCell id="h4Tk04VMiY0GWhx75XCe-130" value="" style="pointerEvents=1;shadow=0;dashed=0;html=1;strokeColor=none;fillColor=#505050;labelPosition=center;verticalLabelPosition=bottom;verticalAlign=top;outlineConnect=0;align=center;shape=mxgraph.office.devices.tv;" parent="h4Tk04VMiY0GWhx75XCe-167" vertex="1">
          <mxGeometry x="60" y="44" width="30" height="20" as="geometry" />
        </mxCell>
        <mxCell id="h4Tk04VMiY0GWhx75XCe-131" value="&lt;b&gt;UI&lt;/b&gt;" style="pointerEvents=1;shadow=0;dashed=0;html=1;strokeColor=none;fillColor=#505050;labelPosition=center;verticalLabelPosition=bottom;verticalAlign=top;outlineConnect=0;align=center;shape=mxgraph.office.devices.tv;" parent="h4Tk04VMiY0GWhx75XCe-167" vertex="1">
          <mxGeometry x="180" y="4" width="30" height="20" as="geometry" />
        </mxCell>
        <mxCell id="h4Tk04VMiY0GWhx75XCe-132" value="" style="pointerEvents=1;shadow=0;dashed=0;html=1;strokeColor=none;fillColor=#505050;labelPosition=center;verticalLabelPosition=bottom;verticalAlign=top;outlineConnect=0;align=center;shape=mxgraph.office.devices.tv;" parent="h4Tk04VMiY0GWhx75XCe-167" vertex="1">
          <mxGeometry x="180" y="44" width="30" height="20" as="geometry" />
        </mxCell>
        <mxCell id="h4Tk04VMiY0GWhx75XCe-133" value="" style="pointerEvents=1;shadow=0;dashed=0;html=1;strokeColor=none;fillColor=#505050;labelPosition=center;verticalLabelPosition=bottom;verticalAlign=top;outlineConnect=0;align=center;shape=mxgraph.office.devices.tv;" parent="h4Tk04VMiY0GWhx75XCe-167" vertex="1">
          <mxGeometry x="140" y="44" width="30" height="20" as="geometry" />
        </mxCell>
        <mxCell id="h4Tk04VMiY0GWhx75XCe-134" value="" style="pointerEvents=1;shadow=0;dashed=0;html=1;strokeColor=none;fillColor=#505050;labelPosition=center;verticalLabelPosition=bottom;verticalAlign=top;outlineConnect=0;align=center;shape=mxgraph.office.devices.tv;" parent="h4Tk04VMiY0GWhx75XCe-167" vertex="1">
          <mxGeometry x="100" y="44" width="30" height="20" as="geometry" />
        </mxCell>
        <mxCell id="h4Tk04VMiY0GWhx75XCe-135" value="" style="pointerEvents=1;shadow=0;dashed=0;html=1;strokeColor=none;fillColor=#505050;labelPosition=center;verticalLabelPosition=bottom;verticalAlign=top;outlineConnect=0;align=center;shape=mxgraph.office.devices.tv;" parent="h4Tk04VMiY0GWhx75XCe-167" vertex="1">
          <mxGeometry x="20" y="44" width="30" height="20" as="geometry" />
        </mxCell>
        <mxCell id="h4Tk04VMiY0GWhx75XCe-136" value="&lt;b&gt;测试&lt;/b&gt;" style="pointerEvents=1;shadow=0;dashed=0;html=1;strokeColor=none;fillColor=#505050;labelPosition=center;verticalLabelPosition=bottom;verticalAlign=top;outlineConnect=0;align=center;shape=mxgraph.office.devices.tv;" parent="h4Tk04VMiY0GWhx75XCe-167" vertex="1">
          <mxGeometry x="450" y="90" width="30" height="20" as="geometry" />
        </mxCell>
        <mxCell id="h4Tk04VMiY0GWhx75XCe-137" value="&lt;b&gt;后台&lt;/b&gt;" style="pointerEvents=1;shadow=0;dashed=0;html=1;strokeColor=none;fillColor=#505050;labelPosition=center;verticalLabelPosition=bottom;verticalAlign=top;outlineConnect=0;align=center;shape=mxgraph.office.devices.tv;" parent="h4Tk04VMiY0GWhx75XCe-167" vertex="1">
          <mxGeometry x="490" y="90" width="30" height="20" as="geometry" />
        </mxCell>
        <mxCell id="h4Tk04VMiY0GWhx75XCe-138" value="&lt;b&gt;web端&lt;/b&gt;" style="pointerEvents=1;shadow=0;dashed=0;html=1;strokeColor=none;fillColor=#505050;labelPosition=center;verticalLabelPosition=bottom;verticalAlign=top;outlineConnect=0;align=center;shape=mxgraph.office.devices.tv;" parent="h4Tk04VMiY0GWhx75XCe-167" vertex="1">
          <mxGeometry x="530" y="89" width="30" height="20" as="geometry" />
        </mxCell>
        <mxCell id="h4Tk04VMiY0GWhx75XCe-139" value="&lt;b&gt;移动端&lt;/b&gt;" style="pointerEvents=1;shadow=0;dashed=0;html=1;strokeColor=none;fillColor=#505050;labelPosition=center;verticalLabelPosition=bottom;verticalAlign=top;outlineConnect=0;align=center;shape=mxgraph.office.devices.tv;" parent="h4Tk04VMiY0GWhx75XCe-167" vertex="1">
          <mxGeometry x="570" y="89" width="30" height="20" as="geometry" />
        </mxCell>
        <mxCell id="h4Tk04VMiY0GWhx75XCe-140" value="" style="pointerEvents=1;shadow=0;dashed=0;html=1;strokeColor=none;fillColor=#505050;labelPosition=center;verticalLabelPosition=bottom;verticalAlign=top;outlineConnect=0;align=center;shape=mxgraph.office.devices.tv;" parent="h4Tk04VMiY0GWhx75XCe-167" vertex="1">
          <mxGeometry x="490" y="130" width="30" height="20" as="geometry" />
        </mxCell>
        <mxCell id="h4Tk04VMiY0GWhx75XCe-141" value="&lt;b&gt;UI&lt;/b&gt;" style="pointerEvents=1;shadow=0;dashed=0;html=1;strokeColor=none;fillColor=#505050;labelPosition=center;verticalLabelPosition=bottom;verticalAlign=top;outlineConnect=0;align=center;shape=mxgraph.office.devices.tv;" parent="h4Tk04VMiY0GWhx75XCe-167" vertex="1">
          <mxGeometry x="610" y="90" width="30" height="20" as="geometry" />
        </mxCell>
        <mxCell id="h4Tk04VMiY0GWhx75XCe-142" value="" style="pointerEvents=1;shadow=0;dashed=0;html=1;strokeColor=none;fillColor=#505050;labelPosition=center;verticalLabelPosition=bottom;verticalAlign=top;outlineConnect=0;align=center;shape=mxgraph.office.devices.tv;" parent="h4Tk04VMiY0GWhx75XCe-167" vertex="1">
          <mxGeometry x="610" y="130" width="30" height="20" as="geometry" />
        </mxCell>
        <mxCell id="h4Tk04VMiY0GWhx75XCe-143" value="" style="pointerEvents=1;shadow=0;dashed=0;html=1;strokeColor=none;fillColor=#505050;labelPosition=center;verticalLabelPosition=bottom;verticalAlign=top;outlineConnect=0;align=center;shape=mxgraph.office.devices.tv;" parent="h4Tk04VMiY0GWhx75XCe-167" vertex="1">
          <mxGeometry x="570" y="131" width="30" height="20" as="geometry" />
        </mxCell>
        <mxCell id="h4Tk04VMiY0GWhx75XCe-144" value="" style="pointerEvents=1;shadow=0;dashed=0;html=1;strokeColor=none;fillColor=#505050;labelPosition=center;verticalLabelPosition=bottom;verticalAlign=top;outlineConnect=0;align=center;shape=mxgraph.office.devices.tv;" parent="h4Tk04VMiY0GWhx75XCe-167" vertex="1">
          <mxGeometry x="530" y="130" width="30" height="20" as="geometry" />
        </mxCell>
        <mxCell id="h4Tk04VMiY0GWhx75XCe-145" value="" style="pointerEvents=1;shadow=0;dashed=0;html=1;strokeColor=none;fillColor=#505050;labelPosition=center;verticalLabelPosition=bottom;verticalAlign=top;outlineConnect=0;align=center;shape=mxgraph.office.devices.tv;" parent="h4Tk04VMiY0GWhx75XCe-167" vertex="1">
          <mxGeometry x="450" y="130" width="30" height="20" as="geometry" />
        </mxCell>
        <mxCell id="h4Tk04VMiY0GWhx75XCe-146" value="&lt;b&gt;测试&lt;/b&gt;" style="pointerEvents=1;shadow=0;dashed=0;html=1;strokeColor=none;fillColor=#505050;labelPosition=center;verticalLabelPosition=bottom;verticalAlign=top;outlineConnect=0;align=center;shape=mxgraph.office.devices.tv;" parent="h4Tk04VMiY0GWhx75XCe-167" vertex="1">
          <mxGeometry x="450" y="4" width="30" height="20" as="geometry" />
        </mxCell>
        <mxCell id="h4Tk04VMiY0GWhx75XCe-147" value="&lt;b&gt;后台&lt;/b&gt;" style="pointerEvents=1;shadow=0;dashed=0;html=1;strokeColor=none;fillColor=#505050;labelPosition=center;verticalLabelPosition=bottom;verticalAlign=top;outlineConnect=0;align=center;shape=mxgraph.office.devices.tv;" parent="h4Tk04VMiY0GWhx75XCe-167" vertex="1">
          <mxGeometry x="490" y="4" width="30" height="20" as="geometry" />
        </mxCell>
        <mxCell id="h4Tk04VMiY0GWhx75XCe-148" value="&lt;b&gt;web端&lt;/b&gt;" style="pointerEvents=1;shadow=0;dashed=0;html=1;strokeColor=none;fillColor=#505050;labelPosition=center;verticalLabelPosition=bottom;verticalAlign=top;outlineConnect=0;align=center;shape=mxgraph.office.devices.tv;" parent="h4Tk04VMiY0GWhx75XCe-167" vertex="1">
          <mxGeometry x="530" y="3" width="30" height="20" as="geometry" />
        </mxCell>
        <mxCell id="h4Tk04VMiY0GWhx75XCe-149" value="&lt;b&gt;移动端&lt;/b&gt;" style="pointerEvents=1;shadow=0;dashed=0;html=1;strokeColor=none;fillColor=#505050;labelPosition=center;verticalLabelPosition=bottom;verticalAlign=top;outlineConnect=0;align=center;shape=mxgraph.office.devices.tv;" parent="h4Tk04VMiY0GWhx75XCe-167" vertex="1">
          <mxGeometry x="570" y="3" width="30" height="20" as="geometry" />
        </mxCell>
        <mxCell id="h4Tk04VMiY0GWhx75XCe-150" value="" style="pointerEvents=1;shadow=0;dashed=0;html=1;strokeColor=none;fillColor=#505050;labelPosition=center;verticalLabelPosition=bottom;verticalAlign=top;outlineConnect=0;align=center;shape=mxgraph.office.devices.tv;" parent="h4Tk04VMiY0GWhx75XCe-167" vertex="1">
          <mxGeometry x="490" y="44" width="30" height="20" as="geometry" />
        </mxCell>
        <mxCell id="h4Tk04VMiY0GWhx75XCe-151" value="&lt;b&gt;UI&lt;/b&gt;" style="pointerEvents=1;shadow=0;dashed=0;html=1;strokeColor=none;fillColor=#505050;labelPosition=center;verticalLabelPosition=bottom;verticalAlign=top;outlineConnect=0;align=center;shape=mxgraph.office.devices.tv;" parent="h4Tk04VMiY0GWhx75XCe-167" vertex="1">
          <mxGeometry x="610" y="4" width="30" height="20" as="geometry" />
        </mxCell>
        <mxCell id="h4Tk04VMiY0GWhx75XCe-152" value="" style="pointerEvents=1;shadow=0;dashed=0;html=1;strokeColor=none;fillColor=#505050;labelPosition=center;verticalLabelPosition=bottom;verticalAlign=top;outlineConnect=0;align=center;shape=mxgraph.office.devices.tv;" parent="h4Tk04VMiY0GWhx75XCe-167" vertex="1">
          <mxGeometry x="610" y="44" width="30" height="20" as="geometry" />
        </mxCell>
        <mxCell id="h4Tk04VMiY0GWhx75XCe-153" value="" style="pointerEvents=1;shadow=0;dashed=0;html=1;strokeColor=none;fillColor=#505050;labelPosition=center;verticalLabelPosition=bottom;verticalAlign=top;outlineConnect=0;align=center;shape=mxgraph.office.devices.tv;" parent="h4Tk04VMiY0GWhx75XCe-167" vertex="1">
          <mxGeometry x="570" y="44" width="30" height="20" as="geometry" />
        </mxCell>
        <mxCell id="h4Tk04VMiY0GWhx75XCe-154" value="" style="pointerEvents=1;shadow=0;dashed=0;html=1;strokeColor=none;fillColor=#505050;labelPosition=center;verticalLabelPosition=bottom;verticalAlign=top;outlineConnect=0;align=center;shape=mxgraph.office.devices.tv;" parent="h4Tk04VMiY0GWhx75XCe-167" vertex="1">
          <mxGeometry x="530" y="44" width="30" height="20" as="geometry" />
        </mxCell>
        <mxCell id="h4Tk04VMiY0GWhx75XCe-155" value="" style="pointerEvents=1;shadow=0;dashed=0;html=1;strokeColor=none;fillColor=#505050;labelPosition=center;verticalLabelPosition=bottom;verticalAlign=top;outlineConnect=0;align=center;shape=mxgraph.office.devices.tv;" parent="h4Tk04VMiY0GWhx75XCe-167" vertex="1">
          <mxGeometry x="450" y="44" width="30" height="20" as="geometry" />
        </mxCell>
        <mxCell id="h4Tk04VMiY0GWhx75XCe-156" value="&lt;b&gt;开&lt;br&gt;发&lt;br&gt;一&lt;br&gt;组&lt;/b&gt;" style="text;html=1;align=center;verticalAlign=middle;resizable=0;points=[];;autosize=1;" parent="h4Tk04VMiY0GWhx75XCe-167" vertex="1">
          <mxGeometry x="210" y="3" width="30" height="60" as="geometry" />
        </mxCell>
        <mxCell id="h4Tk04VMiY0GWhx75XCe-157" value="&lt;b&gt;开&lt;br&gt;发&lt;br&gt;二&lt;br&gt;组&lt;/b&gt;" style="text;html=1;align=center;verticalAlign=middle;resizable=0;points=[];;autosize=1;" parent="h4Tk04VMiY0GWhx75XCe-167" vertex="1">
          <mxGeometry x="422" y="4" width="30" height="60" as="geometry" />
        </mxCell>
        <mxCell id="h4Tk04VMiY0GWhx75XCe-158" value="&lt;b&gt;开&lt;br&gt;发&lt;br&gt;三&lt;br&gt;组&lt;/b&gt;" style="text;html=1;align=center;verticalAlign=middle;resizable=0;points=[];;autosize=1;" parent="h4Tk04VMiY0GWhx75XCe-167" vertex="1">
          <mxGeometry x="210" y="90" width="30" height="60" as="geometry" />
        </mxCell>
        <mxCell id="h4Tk04VMiY0GWhx75XCe-159" value="&lt;b&gt;开&lt;br&gt;发&lt;br&gt;四&lt;br&gt;组&lt;/b&gt;" style="text;html=1;align=center;verticalAlign=middle;resizable=0;points=[];;autosize=1;" parent="h4Tk04VMiY0GWhx75XCe-167" vertex="1">
          <mxGeometry x="424" y="89" width="30" height="60" as="geometry" />
        </mxCell>
        <mxCell id="h4Tk04VMiY0GWhx75XCe-160" value="商&lt;br&gt;务&lt;br&gt;室" style="text;html=1;align=center;verticalAlign=middle;resizable=0;points=[];;autosize=1;" parent="h4Tk04VMiY0GWhx75XCe-167" vertex="1">
          <mxGeometry x="119" y="172" width="30" height="50" as="geometry" />
        </mxCell>
        <mxCell id="h4Tk04VMiY0GWhx75XCe-161" value="商&lt;br&gt;务&lt;br&gt;室" style="text;html=1;align=center;verticalAlign=middle;resizable=0;points=[];;autosize=1;" parent="h4Tk04VMiY0GWhx75XCe-167" vertex="1">
          <mxGeometry x="309" y="174" width="30" height="50" as="geometry" />
        </mxCell>
        <mxCell id="h4Tk04VMiY0GWhx75XCe-162" value="商&lt;br&gt;务&lt;br&gt;室" style="text;html=1;align=center;verticalAlign=middle;resizable=0;points=[];;autosize=1;" parent="h4Tk04VMiY0GWhx75XCe-167" vertex="1">
          <mxGeometry x="501" y="173" width="30" height="50" as="geometry" />
        </mxCell>
        <mxCell id="h4Tk04VMiY0GWhx75XCe-174" value="" style="rounded=0;whiteSpace=wrap;html=1;fillColor=#ffe6cc;strokeColor=#d79b00;" parent="h4Tk04VMiY0GWhx75XCe-167" vertex="1">
          <mxGeometry x="555" y="169" width="85" height="60" as="geometry" />
        </mxCell>
        <mxCell id="h4Tk04VMiY0GWhx75XCe-180" value="棋&lt;br&gt;牌&lt;br&gt;室" style="text;html=1;align=center;verticalAlign=middle;resizable=0;points=[];;autosize=1;" parent="h4Tk04VMiY0GWhx75XCe-167" vertex="1">
          <mxGeometry x="615" y="172" width="30" height="50" as="geometry" />
        </mxCell>
        <mxCell id="h4Tk04VMiY0GWhx75XCe-179" value="" style="whiteSpace=wrap;html=1;aspect=fixed;fillColor=#dae8fc;strokeColor=#6c8ebf;" parent="h4Tk04VMiY0GWhx75XCe-167" vertex="1">
          <mxGeometry x="572" y="182" width="36" height="36" as="geometry" />
        </mxCell>
        <mxCell id="h4Tk04VMiY0GWhx75XCe-176" value="" style="rounded=0;whiteSpace=wrap;html=1;fillColor=#dae8fc;strokeColor=#6c8ebf;" parent="h4Tk04VMiY0GWhx75XCe-167" vertex="1">
          <mxGeometry x="561" y="192.5" width="10" height="13" as="geometry" />
        </mxCell>
        <mxCell id="h4Tk04VMiY0GWhx75XCe-168" value="&lt;b&gt;二、&lt;/b&gt;&amp;nbsp;基于在茶楼里面来往的商业谈判均离不开各类项目双方的谈判。当项目双方产生好的idea，&lt;br&gt;&amp;nbsp; &amp;nbsp; 会苦于接下来的项目开展的筹备。起步阶段都是需要从简节约快速形成项目雏形为目的，&lt;br&gt;&amp;nbsp; &amp;nbsp; &amp;nbsp; &amp;nbsp; &amp;nbsp; &amp;nbsp; &amp;nbsp; &amp;nbsp; &amp;nbsp; &amp;nbsp; &amp;nbsp;这个过程通常都是采取外包的形式达成在成本核算之下求得最优结果。&lt;b&gt;项目外包与自己筹建的优劣:&lt;/b&gt;&lt;br&gt;&amp;nbsp; &amp;nbsp; &amp;nbsp; &amp;nbsp; &amp;nbsp; &amp;nbsp; &amp;nbsp; &amp;nbsp; &amp;nbsp; &amp;nbsp; &amp;nbsp; &amp;nbsp; &amp;nbsp; &amp;nbsp; &amp;nbsp; &amp;nbsp; &amp;nbsp; 可以从现在的各行各业看，包括制造业在内，业务项目的外包都通用的一种商业模式，创业初期更是如此..." style="text;html=1;align=center;verticalAlign=middle;resizable=0;points=[];;autosize=1;" parent="1" vertex="1">
          <mxGeometry x="30" y="492.5" width="690" height="60" as="geometry" />
        </mxCell>
        <mxCell id="h4Tk04VMiY0GWhx75XCe-175" value="" style="rounded=0;whiteSpace=wrap;html=1;fillColor=#dae8fc;strokeColor=#6c8ebf;" parent="1" vertex="1">
          <mxGeometry x="658" y="269" width="10" height="13" as="geometry" />
        </mxCell>
        <mxCell id="h4Tk04VMiY0GWhx75XCe-177" value="" style="rounded=0;whiteSpace=wrap;html=1;fillColor=#dae8fc;strokeColor=#6c8ebf;" parent="1" vertex="1">
          <mxGeometry x="635" y="249" width="10" height="10" as="geometry" />
        </mxCell>
        <mxCell id="h4Tk04VMiY0GWhx75XCe-178" value="" style="rounded=0;whiteSpace=wrap;html=1;fillColor=#dae8fc;strokeColor=#6c8ebf;" parent="1" vertex="1">
          <mxGeometry x="637" y="295" width="10" height="10" as="geometry" />
        </mxCell>
        <mxCell id="DjNnI_YoFpCWaaZ_e0mK-1" value="&lt;font style=&quot;vertical-align: inherit&quot;&gt;&lt;font style=&quot;vertical-align: inherit&quot;&gt;&lt;font style=&quot;vertical-align: inherit&quot;&gt;&lt;font style=&quot;vertical-align: inherit ; font-size: 18px&quot;&gt;&lt;b&gt;创业孵化器coffee、茶楼&lt;/b&gt;&lt;/font&gt;&lt;/font&gt;&lt;/font&gt;&lt;/font&gt;" style="text;html=1;align=center;verticalAlign=middle;resizable=0;points=[];autosize=1;" parent="1" vertex="1">
          <mxGeometry x="282.5" y="40" width="210" height="20" as="geometry" />
        </mxCell>
        <mxCell id="ZBw0nQ9lH2d1jffSdDRH-13" value="" style="group" vertex="1" connectable="0" parent="1">
          <mxGeometry x="1000" y="320" width="97" height="88" as="geometry" />
        </mxCell>
        <mxCell id="ZBw0nQ9lH2d1jffSdDRH-3" value="" style="verticalLabelPosition=bottom;html=1;verticalAlign=top;align=center;shape=mxgraph.floorplan.chair;shadow=0;" vertex="1" parent="ZBw0nQ9lH2d1jffSdDRH-13">
          <mxGeometry x="37.0650406504065" width="31.54471544715447" height="35.47286821705426" as="geometry" />
        </mxCell>
        <mxCell id="ZBw0nQ9lH2d1jffSdDRH-4" value="" style="verticalLabelPosition=bottom;html=1;verticalAlign=top;align=center;shape=mxgraph.floorplan.chair;shadow=0;direction=west;" vertex="1" parent="ZBw0nQ9lH2d1jffSdDRH-13">
          <mxGeometry x="37.0650406504065" y="52.52713178294574" width="31.54471544715447" height="35.47286821705426" as="geometry" />
        </mxCell>
        <mxCell id="ZBw0nQ9lH2d1jffSdDRH-5" value="" style="verticalLabelPosition=bottom;html=1;verticalAlign=top;align=center;shape=mxgraph.floorplan.chair;shadow=0;direction=north;" vertex="1" parent="ZBw0nQ9lH2d1jffSdDRH-13">
          <mxGeometry y="31.37984496124031" width="41.00813008130081" height="27.286821705426355" as="geometry" />
        </mxCell>
        <mxCell id="ZBw0nQ9lH2d1jffSdDRH-6" value="" style="verticalLabelPosition=bottom;html=1;verticalAlign=top;align=center;shape=mxgraph.floorplan.chair;shadow=0;direction=south" vertex="1" parent="ZBw0nQ9lH2d1jffSdDRH-13">
          <mxGeometry x="55.99186991869919" y="31.37984496124031" width="41.00813008130081" height="27.286821705426355" as="geometry" />
        </mxCell>
        <mxCell id="ZBw0nQ9lH2d1jffSdDRH-7" value="" style="shape=rect;shadow=0;html=1;" vertex="1" parent="ZBw0nQ9lH2d1jffSdDRH-13">
          <mxGeometry x="13.40650406504065" y="10.914728682170542" width="70.97560975609755" height="64.8062015503876" as="geometry" />
        </mxCell>
        <mxCell id="ZBw0nQ9lH2d1jffSdDRH-8" value="" style="verticalLabelPosition=bottom;html=1;verticalAlign=top;align=center;shape=mxgraph.floorplan.water_cooler;" vertex="1" parent="ZBw0nQ9lH2d1jffSdDRH-13">
          <mxGeometry x="33.12195121951219" y="30.015503875968992" width="31.54471544715447" height="27.286821705426355" as="geometry" />
        </mxCell>
        <mxCell id="ZBw0nQ9lH2d1jffSdDRH-9" value="" style="ellipse;whiteSpace=wrap;html=1;" vertex="1" parent="ZBw0nQ9lH2d1jffSdDRH-13">
          <mxGeometry x="41.796747967479675" y="17.05426356589147" width="19.715447154471544" height="3.4108527131782944" as="geometry" />
        </mxCell>
        <mxCell id="ZBw0nQ9lH2d1jffSdDRH-10" value="" style="ellipse;whiteSpace=wrap;html=1;rotation=90;" vertex="1" parent="ZBw0nQ9lH2d1jffSdDRH-13">
          <mxGeometry x="10.646341463414634" y="41.95348837209302" width="19.715447154471544" height="3.4108527131782944" as="geometry" />
        </mxCell>
        <mxCell id="ZBw0nQ9lH2d1jffSdDRH-11" value="" style="ellipse;whiteSpace=wrap;html=1;rotation=90;" vertex="1" parent="ZBw0nQ9lH2d1jffSdDRH-13">
          <mxGeometry x="66.24390243902438" y="41.95348837209302" width="19.715447154471544" height="3.4108527131782944" as="geometry" />
        </mxCell>
        <mxCell id="ZBw0nQ9lH2d1jffSdDRH-12" value="" style="ellipse;whiteSpace=wrap;html=1;" vertex="1" parent="ZBw0nQ9lH2d1jffSdDRH-13">
          <mxGeometry x="41.00813008130081" y="68.55813953488372" width="19.715447154471544" height="3.4108527131782944" as="geometry" />
        </mxCell>
        <mxCell id="ZBw0nQ9lH2d1jffSdDRH-14" value="" style="group" vertex="1" connectable="0" parent="1">
          <mxGeometry x="1116" y="320" width="97" height="88" as="geometry" />
        </mxCell>
        <mxCell id="ZBw0nQ9lH2d1jffSdDRH-15" value="" style="verticalLabelPosition=bottom;html=1;verticalAlign=top;align=center;shape=mxgraph.floorplan.chair;shadow=0;" vertex="1" parent="ZBw0nQ9lH2d1jffSdDRH-14">
          <mxGeometry x="37.0650406504065" width="31.54471544715447" height="35.47286821705426" as="geometry" />
        </mxCell>
        <mxCell id="ZBw0nQ9lH2d1jffSdDRH-16" value="" style="verticalLabelPosition=bottom;html=1;verticalAlign=top;align=center;shape=mxgraph.floorplan.chair;shadow=0;direction=west;" vertex="1" parent="ZBw0nQ9lH2d1jffSdDRH-14">
          <mxGeometry x="37.0650406504065" y="52.52713178294574" width="31.54471544715447" height="35.47286821705426" as="geometry" />
        </mxCell>
        <mxCell id="ZBw0nQ9lH2d1jffSdDRH-17" value="" style="verticalLabelPosition=bottom;html=1;verticalAlign=top;align=center;shape=mxgraph.floorplan.chair;shadow=0;direction=north;" vertex="1" parent="ZBw0nQ9lH2d1jffSdDRH-14">
          <mxGeometry y="31.37984496124031" width="41.00813008130081" height="27.286821705426355" as="geometry" />
        </mxCell>
        <mxCell id="ZBw0nQ9lH2d1jffSdDRH-18" value="" style="verticalLabelPosition=bottom;html=1;verticalAlign=top;align=center;shape=mxgraph.floorplan.chair;shadow=0;direction=south" vertex="1" parent="ZBw0nQ9lH2d1jffSdDRH-14">
          <mxGeometry x="55.99186991869919" y="31.37984496124031" width="41.00813008130081" height="27.286821705426355" as="geometry" />
        </mxCell>
        <mxCell id="ZBw0nQ9lH2d1jffSdDRH-19" value="" style="shape=rect;shadow=0;html=1;" vertex="1" parent="ZBw0nQ9lH2d1jffSdDRH-14">
          <mxGeometry x="13.40650406504065" y="10.914728682170542" width="70.97560975609755" height="64.8062015503876" as="geometry" />
        </mxCell>
        <mxCell id="ZBw0nQ9lH2d1jffSdDRH-20" value="" style="verticalLabelPosition=bottom;html=1;verticalAlign=top;align=center;shape=mxgraph.floorplan.water_cooler;" vertex="1" parent="ZBw0nQ9lH2d1jffSdDRH-14">
          <mxGeometry x="33.12195121951219" y="30.015503875968992" width="31.54471544715447" height="27.286821705426355" as="geometry" />
        </mxCell>
        <mxCell id="ZBw0nQ9lH2d1jffSdDRH-21" value="" style="ellipse;whiteSpace=wrap;html=1;" vertex="1" parent="ZBw0nQ9lH2d1jffSdDRH-14">
          <mxGeometry x="41.796747967479675" y="17.05426356589147" width="19.715447154471544" height="3.4108527131782944" as="geometry" />
        </mxCell>
        <mxCell id="ZBw0nQ9lH2d1jffSdDRH-22" value="" style="ellipse;whiteSpace=wrap;html=1;rotation=90;" vertex="1" parent="ZBw0nQ9lH2d1jffSdDRH-14">
          <mxGeometry x="10.646341463414634" y="41.95348837209302" width="19.715447154471544" height="3.4108527131782944" as="geometry" />
        </mxCell>
        <mxCell id="ZBw0nQ9lH2d1jffSdDRH-23" value="" style="ellipse;whiteSpace=wrap;html=1;rotation=90;" vertex="1" parent="ZBw0nQ9lH2d1jffSdDRH-14">
          <mxGeometry x="66.24390243902438" y="41.95348837209302" width="19.715447154471544" height="3.4108527131782944" as="geometry" />
        </mxCell>
        <mxCell id="ZBw0nQ9lH2d1jffSdDRH-24" value="" style="ellipse;whiteSpace=wrap;html=1;" vertex="1" parent="ZBw0nQ9lH2d1jffSdDRH-14">
          <mxGeometry x="41.00813008130081" y="68.55813953488372" width="19.715447154471544" height="3.4108527131782944" as="geometry" />
        </mxCell>
        <mxCell id="ZBw0nQ9lH2d1jffSdDRH-25" value="" style="group" vertex="1" connectable="0" parent="1">
          <mxGeometry x="1230" y="320" width="97" height="88" as="geometry" />
        </mxCell>
        <mxCell id="ZBw0nQ9lH2d1jffSdDRH-26" value="" style="verticalLabelPosition=bottom;html=1;verticalAlign=top;align=center;shape=mxgraph.floorplan.chair;shadow=0;" vertex="1" parent="ZBw0nQ9lH2d1jffSdDRH-25">
          <mxGeometry x="37.0650406504065" width="31.54471544715447" height="35.47286821705426" as="geometry" />
        </mxCell>
        <mxCell id="ZBw0nQ9lH2d1jffSdDRH-27" value="" style="verticalLabelPosition=bottom;html=1;verticalAlign=top;align=center;shape=mxgraph.floorplan.chair;shadow=0;direction=west;" vertex="1" parent="ZBw0nQ9lH2d1jffSdDRH-25">
          <mxGeometry x="37.0650406504065" y="52.52713178294574" width="31.54471544715447" height="35.47286821705426" as="geometry" />
        </mxCell>
        <mxCell id="ZBw0nQ9lH2d1jffSdDRH-28" value="" style="verticalLabelPosition=bottom;html=1;verticalAlign=top;align=center;shape=mxgraph.floorplan.chair;shadow=0;direction=north;" vertex="1" parent="ZBw0nQ9lH2d1jffSdDRH-25">
          <mxGeometry y="31.37984496124031" width="41.00813008130081" height="27.286821705426355" as="geometry" />
        </mxCell>
        <mxCell id="ZBw0nQ9lH2d1jffSdDRH-29" value="" style="verticalLabelPosition=bottom;html=1;verticalAlign=top;align=center;shape=mxgraph.floorplan.chair;shadow=0;direction=south" vertex="1" parent="ZBw0nQ9lH2d1jffSdDRH-25">
          <mxGeometry x="55.99186991869919" y="31.37984496124031" width="41.00813008130081" height="27.286821705426355" as="geometry" />
        </mxCell>
        <mxCell id="ZBw0nQ9lH2d1jffSdDRH-30" value="" style="shape=rect;shadow=0;html=1;" vertex="1" parent="ZBw0nQ9lH2d1jffSdDRH-25">
          <mxGeometry x="13.40650406504065" y="10.914728682170542" width="70.97560975609755" height="64.8062015503876" as="geometry" />
        </mxCell>
        <mxCell id="ZBw0nQ9lH2d1jffSdDRH-31" value="" style="verticalLabelPosition=bottom;html=1;verticalAlign=top;align=center;shape=mxgraph.floorplan.water_cooler;" vertex="1" parent="ZBw0nQ9lH2d1jffSdDRH-25">
          <mxGeometry x="33.12195121951219" y="30.015503875968992" width="31.54471544715447" height="27.286821705426355" as="geometry" />
        </mxCell>
        <mxCell id="ZBw0nQ9lH2d1jffSdDRH-32" value="" style="ellipse;whiteSpace=wrap;html=1;" vertex="1" parent="ZBw0nQ9lH2d1jffSdDRH-25">
          <mxGeometry x="41.796747967479675" y="17.05426356589147" width="19.715447154471544" height="3.4108527131782944" as="geometry" />
        </mxCell>
        <mxCell id="ZBw0nQ9lH2d1jffSdDRH-33" value="" style="ellipse;whiteSpace=wrap;html=1;rotation=90;" vertex="1" parent="ZBw0nQ9lH2d1jffSdDRH-25">
          <mxGeometry x="10.646341463414634" y="41.95348837209302" width="19.715447154471544" height="3.4108527131782944" as="geometry" />
        </mxCell>
        <mxCell id="ZBw0nQ9lH2d1jffSdDRH-34" value="" style="ellipse;whiteSpace=wrap;html=1;rotation=90;" vertex="1" parent="ZBw0nQ9lH2d1jffSdDRH-25">
          <mxGeometry x="66.24390243902438" y="41.95348837209302" width="19.715447154471544" height="3.4108527131782944" as="geometry" />
        </mxCell>
        <mxCell id="ZBw0nQ9lH2d1jffSdDRH-35" value="" style="ellipse;whiteSpace=wrap;html=1;" vertex="1" parent="ZBw0nQ9lH2d1jffSdDRH-25">
          <mxGeometry x="41.00813008130081" y="68.55813953488372" width="19.715447154471544" height="3.4108527131782944" as="geometry" />
        </mxCell>
        <mxCell id="ZBw0nQ9lH2d1jffSdDRH-36" value="" style="group" vertex="1" connectable="0" parent="1">
          <mxGeometry x="1342" y="320" width="97" height="88" as="geometry" />
        </mxCell>
        <mxCell id="ZBw0nQ9lH2d1jffSdDRH-37" value="" style="verticalLabelPosition=bottom;html=1;verticalAlign=top;align=center;shape=mxgraph.floorplan.chair;shadow=0;" vertex="1" parent="ZBw0nQ9lH2d1jffSdDRH-36">
          <mxGeometry x="37.0650406504065" width="31.54471544715447" height="35.47286821705426" as="geometry" />
        </mxCell>
        <mxCell id="ZBw0nQ9lH2d1jffSdDRH-38" value="" style="verticalLabelPosition=bottom;html=1;verticalAlign=top;align=center;shape=mxgraph.floorplan.chair;shadow=0;direction=west;" vertex="1" parent="ZBw0nQ9lH2d1jffSdDRH-36">
          <mxGeometry x="37.0650406504065" y="52.52713178294574" width="31.54471544715447" height="35.47286821705426" as="geometry" />
        </mxCell>
        <mxCell id="ZBw0nQ9lH2d1jffSdDRH-39" value="" style="verticalLabelPosition=bottom;html=1;verticalAlign=top;align=center;shape=mxgraph.floorplan.chair;shadow=0;direction=north;" vertex="1" parent="ZBw0nQ9lH2d1jffSdDRH-36">
          <mxGeometry y="31.37984496124031" width="41.00813008130081" height="27.286821705426355" as="geometry" />
        </mxCell>
        <mxCell id="ZBw0nQ9lH2d1jffSdDRH-40" value="" style="verticalLabelPosition=bottom;html=1;verticalAlign=top;align=center;shape=mxgraph.floorplan.chair;shadow=0;direction=south" vertex="1" parent="ZBw0nQ9lH2d1jffSdDRH-36">
          <mxGeometry x="55.99186991869919" y="31.37984496124031" width="41.00813008130081" height="27.286821705426355" as="geometry" />
        </mxCell>
        <mxCell id="ZBw0nQ9lH2d1jffSdDRH-41" value="" style="shape=rect;shadow=0;html=1;" vertex="1" parent="ZBw0nQ9lH2d1jffSdDRH-36">
          <mxGeometry x="13.40650406504065" y="10.914728682170542" width="70.97560975609755" height="64.8062015503876" as="geometry" />
        </mxCell>
        <mxCell id="ZBw0nQ9lH2d1jffSdDRH-42" value="" style="verticalLabelPosition=bottom;html=1;verticalAlign=top;align=center;shape=mxgraph.floorplan.water_cooler;" vertex="1" parent="ZBw0nQ9lH2d1jffSdDRH-36">
          <mxGeometry x="33.12195121951219" y="30.015503875968992" width="31.54471544715447" height="27.286821705426355" as="geometry" />
        </mxCell>
        <mxCell id="ZBw0nQ9lH2d1jffSdDRH-43" value="" style="ellipse;whiteSpace=wrap;html=1;" vertex="1" parent="ZBw0nQ9lH2d1jffSdDRH-36">
          <mxGeometry x="41.796747967479675" y="17.05426356589147" width="19.715447154471544" height="3.4108527131782944" as="geometry" />
        </mxCell>
        <mxCell id="ZBw0nQ9lH2d1jffSdDRH-44" value="" style="ellipse;whiteSpace=wrap;html=1;rotation=90;" vertex="1" parent="ZBw0nQ9lH2d1jffSdDRH-36">
          <mxGeometry x="10.646341463414634" y="41.95348837209302" width="19.715447154471544" height="3.4108527131782944" as="geometry" />
        </mxCell>
        <mxCell id="ZBw0nQ9lH2d1jffSdDRH-45" value="" style="ellipse;whiteSpace=wrap;html=1;rotation=90;" vertex="1" parent="ZBw0nQ9lH2d1jffSdDRH-36">
          <mxGeometry x="66.24390243902438" y="41.95348837209302" width="19.715447154471544" height="3.4108527131782944" as="geometry" />
        </mxCell>
        <mxCell id="ZBw0nQ9lH2d1jffSdDRH-46" value="" style="ellipse;whiteSpace=wrap;html=1;" vertex="1" parent="ZBw0nQ9lH2d1jffSdDRH-36">
          <mxGeometry x="41.00813008130081" y="68.55813953488372" width="19.715447154471544" height="3.4108527131782944" as="geometry" />
        </mxCell>
        <mxCell id="ZBw0nQ9lH2d1jffSdDRH-47" value="" style="group" vertex="1" connectable="0" parent="1">
          <mxGeometry x="1000" y="190" width="97" height="88" as="geometry" />
        </mxCell>
        <mxCell id="ZBw0nQ9lH2d1jffSdDRH-48" value="" style="verticalLabelPosition=bottom;html=1;verticalAlign=top;align=center;shape=mxgraph.floorplan.chair;shadow=0;" vertex="1" parent="ZBw0nQ9lH2d1jffSdDRH-47">
          <mxGeometry x="37.0650406504065" width="31.54471544715447" height="35.47286821705426" as="geometry" />
        </mxCell>
        <mxCell id="ZBw0nQ9lH2d1jffSdDRH-49" value="" style="verticalLabelPosition=bottom;html=1;verticalAlign=top;align=center;shape=mxgraph.floorplan.chair;shadow=0;direction=west;" vertex="1" parent="ZBw0nQ9lH2d1jffSdDRH-47">
          <mxGeometry x="37.0650406504065" y="52.52713178294574" width="31.54471544715447" height="35.47286821705426" as="geometry" />
        </mxCell>
        <mxCell id="ZBw0nQ9lH2d1jffSdDRH-50" value="" style="verticalLabelPosition=bottom;html=1;verticalAlign=top;align=center;shape=mxgraph.floorplan.chair;shadow=0;direction=north;" vertex="1" parent="ZBw0nQ9lH2d1jffSdDRH-47">
          <mxGeometry y="31.37984496124031" width="41.00813008130081" height="27.286821705426355" as="geometry" />
        </mxCell>
        <mxCell id="ZBw0nQ9lH2d1jffSdDRH-51" value="" style="verticalLabelPosition=bottom;html=1;verticalAlign=top;align=center;shape=mxgraph.floorplan.chair;shadow=0;direction=south" vertex="1" parent="ZBw0nQ9lH2d1jffSdDRH-47">
          <mxGeometry x="55.99186991869919" y="31.37984496124031" width="41.00813008130081" height="27.286821705426355" as="geometry" />
        </mxCell>
        <mxCell id="ZBw0nQ9lH2d1jffSdDRH-52" value="" style="shape=rect;shadow=0;html=1;" vertex="1" parent="ZBw0nQ9lH2d1jffSdDRH-47">
          <mxGeometry x="13.40650406504065" y="10.914728682170542" width="70.97560975609755" height="64.8062015503876" as="geometry" />
        </mxCell>
        <mxCell id="ZBw0nQ9lH2d1jffSdDRH-53" value="" style="verticalLabelPosition=bottom;html=1;verticalAlign=top;align=center;shape=mxgraph.floorplan.water_cooler;" vertex="1" parent="ZBw0nQ9lH2d1jffSdDRH-47">
          <mxGeometry x="33.12195121951219" y="30.015503875968992" width="31.54471544715447" height="27.286821705426355" as="geometry" />
        </mxCell>
        <mxCell id="ZBw0nQ9lH2d1jffSdDRH-54" value="" style="ellipse;whiteSpace=wrap;html=1;" vertex="1" parent="ZBw0nQ9lH2d1jffSdDRH-47">
          <mxGeometry x="41.796747967479675" y="17.05426356589147" width="19.715447154471544" height="3.4108527131782944" as="geometry" />
        </mxCell>
        <mxCell id="ZBw0nQ9lH2d1jffSdDRH-55" value="" style="ellipse;whiteSpace=wrap;html=1;rotation=90;" vertex="1" parent="ZBw0nQ9lH2d1jffSdDRH-47">
          <mxGeometry x="10.646341463414634" y="41.95348837209302" width="19.715447154471544" height="3.4108527131782944" as="geometry" />
        </mxCell>
        <mxCell id="ZBw0nQ9lH2d1jffSdDRH-56" value="" style="ellipse;whiteSpace=wrap;html=1;rotation=90;" vertex="1" parent="ZBw0nQ9lH2d1jffSdDRH-47">
          <mxGeometry x="66.24390243902438" y="41.95348837209302" width="19.715447154471544" height="3.4108527131782944" as="geometry" />
        </mxCell>
        <mxCell id="ZBw0nQ9lH2d1jffSdDRH-57" value="" style="ellipse;whiteSpace=wrap;html=1;" vertex="1" parent="ZBw0nQ9lH2d1jffSdDRH-47">
          <mxGeometry x="41.00813008130081" y="68.55813953488372" width="19.715447154471544" height="3.4108527131782944" as="geometry" />
        </mxCell>
        <mxCell id="ZBw0nQ9lH2d1jffSdDRH-58" value="" style="group" vertex="1" connectable="0" parent="1">
          <mxGeometry x="1116" y="190" width="97" height="88" as="geometry" />
        </mxCell>
        <mxCell id="ZBw0nQ9lH2d1jffSdDRH-59" value="" style="verticalLabelPosition=bottom;html=1;verticalAlign=top;align=center;shape=mxgraph.floorplan.chair;shadow=0;" vertex="1" parent="ZBw0nQ9lH2d1jffSdDRH-58">
          <mxGeometry x="37.0650406504065" width="31.54471544715447" height="35.47286821705426" as="geometry" />
        </mxCell>
        <mxCell id="ZBw0nQ9lH2d1jffSdDRH-60" value="" style="verticalLabelPosition=bottom;html=1;verticalAlign=top;align=center;shape=mxgraph.floorplan.chair;shadow=0;direction=west;" vertex="1" parent="ZBw0nQ9lH2d1jffSdDRH-58">
          <mxGeometry x="37.0650406504065" y="52.52713178294574" width="31.54471544715447" height="35.47286821705426" as="geometry" />
        </mxCell>
        <mxCell id="ZBw0nQ9lH2d1jffSdDRH-61" value="" style="verticalLabelPosition=bottom;html=1;verticalAlign=top;align=center;shape=mxgraph.floorplan.chair;shadow=0;direction=north;" vertex="1" parent="ZBw0nQ9lH2d1jffSdDRH-58">
          <mxGeometry y="31.37984496124031" width="41.00813008130081" height="27.286821705426355" as="geometry" />
        </mxCell>
        <mxCell id="ZBw0nQ9lH2d1jffSdDRH-62" value="" style="verticalLabelPosition=bottom;html=1;verticalAlign=top;align=center;shape=mxgraph.floorplan.chair;shadow=0;direction=south" vertex="1" parent="ZBw0nQ9lH2d1jffSdDRH-58">
          <mxGeometry x="55.99186991869919" y="31.37984496124031" width="41.00813008130081" height="27.286821705426355" as="geometry" />
        </mxCell>
        <mxCell id="ZBw0nQ9lH2d1jffSdDRH-63" value="" style="shape=rect;shadow=0;html=1;" vertex="1" parent="ZBw0nQ9lH2d1jffSdDRH-58">
          <mxGeometry x="13.40650406504065" y="10.914728682170542" width="70.97560975609755" height="64.8062015503876" as="geometry" />
        </mxCell>
        <mxCell id="ZBw0nQ9lH2d1jffSdDRH-64" value="" style="verticalLabelPosition=bottom;html=1;verticalAlign=top;align=center;shape=mxgraph.floorplan.water_cooler;" vertex="1" parent="ZBw0nQ9lH2d1jffSdDRH-58">
          <mxGeometry x="33.12195121951219" y="30.015503875968992" width="31.54471544715447" height="27.286821705426355" as="geometry" />
        </mxCell>
        <mxCell id="ZBw0nQ9lH2d1jffSdDRH-65" value="" style="ellipse;whiteSpace=wrap;html=1;" vertex="1" parent="ZBw0nQ9lH2d1jffSdDRH-58">
          <mxGeometry x="41.796747967479675" y="17.05426356589147" width="19.715447154471544" height="3.4108527131782944" as="geometry" />
        </mxCell>
        <mxCell id="ZBw0nQ9lH2d1jffSdDRH-66" value="" style="ellipse;whiteSpace=wrap;html=1;rotation=90;" vertex="1" parent="ZBw0nQ9lH2d1jffSdDRH-58">
          <mxGeometry x="10.646341463414634" y="41.95348837209302" width="19.715447154471544" height="3.4108527131782944" as="geometry" />
        </mxCell>
        <mxCell id="ZBw0nQ9lH2d1jffSdDRH-67" value="" style="ellipse;whiteSpace=wrap;html=1;rotation=90;" vertex="1" parent="ZBw0nQ9lH2d1jffSdDRH-58">
          <mxGeometry x="66.24390243902438" y="41.95348837209302" width="19.715447154471544" height="3.4108527131782944" as="geometry" />
        </mxCell>
        <mxCell id="ZBw0nQ9lH2d1jffSdDRH-68" value="" style="ellipse;whiteSpace=wrap;html=1;" vertex="1" parent="ZBw0nQ9lH2d1jffSdDRH-58">
          <mxGeometry x="41.00813008130081" y="68.55813953488372" width="19.715447154471544" height="3.4108527131782944" as="geometry" />
        </mxCell>
        <mxCell id="ZBw0nQ9lH2d1jffSdDRH-69" value="" style="group" vertex="1" connectable="0" parent="1">
          <mxGeometry x="1230" y="190" width="97" height="88" as="geometry" />
        </mxCell>
        <mxCell id="ZBw0nQ9lH2d1jffSdDRH-70" value="" style="verticalLabelPosition=bottom;html=1;verticalAlign=top;align=center;shape=mxgraph.floorplan.chair;shadow=0;" vertex="1" parent="ZBw0nQ9lH2d1jffSdDRH-69">
          <mxGeometry x="37.0650406504065" width="31.54471544715447" height="35.47286821705426" as="geometry" />
        </mxCell>
        <mxCell id="ZBw0nQ9lH2d1jffSdDRH-71" value="" style="verticalLabelPosition=bottom;html=1;verticalAlign=top;align=center;shape=mxgraph.floorplan.chair;shadow=0;direction=west;" vertex="1" parent="ZBw0nQ9lH2d1jffSdDRH-69">
          <mxGeometry x="37.0650406504065" y="52.52713178294574" width="31.54471544715447" height="35.47286821705426" as="geometry" />
        </mxCell>
        <mxCell id="ZBw0nQ9lH2d1jffSdDRH-72" value="" style="verticalLabelPosition=bottom;html=1;verticalAlign=top;align=center;shape=mxgraph.floorplan.chair;shadow=0;direction=north;" vertex="1" parent="ZBw0nQ9lH2d1jffSdDRH-69">
          <mxGeometry y="31.37984496124031" width="41.00813008130081" height="27.286821705426355" as="geometry" />
        </mxCell>
        <mxCell id="ZBw0nQ9lH2d1jffSdDRH-73" value="" style="verticalLabelPosition=bottom;html=1;verticalAlign=top;align=center;shape=mxgraph.floorplan.chair;shadow=0;direction=south" vertex="1" parent="ZBw0nQ9lH2d1jffSdDRH-69">
          <mxGeometry x="55.99186991869919" y="31.37984496124031" width="41.00813008130081" height="27.286821705426355" as="geometry" />
        </mxCell>
        <mxCell id="ZBw0nQ9lH2d1jffSdDRH-74" value="" style="shape=rect;shadow=0;html=1;" vertex="1" parent="ZBw0nQ9lH2d1jffSdDRH-69">
          <mxGeometry x="13.40650406504065" y="10.914728682170542" width="70.97560975609755" height="64.8062015503876" as="geometry" />
        </mxCell>
        <mxCell id="ZBw0nQ9lH2d1jffSdDRH-75" value="" style="verticalLabelPosition=bottom;html=1;verticalAlign=top;align=center;shape=mxgraph.floorplan.water_cooler;" vertex="1" parent="ZBw0nQ9lH2d1jffSdDRH-69">
          <mxGeometry x="33.12195121951219" y="30.015503875968992" width="31.54471544715447" height="27.286821705426355" as="geometry" />
        </mxCell>
        <mxCell id="ZBw0nQ9lH2d1jffSdDRH-76" value="" style="ellipse;whiteSpace=wrap;html=1;" vertex="1" parent="ZBw0nQ9lH2d1jffSdDRH-69">
          <mxGeometry x="41.796747967479675" y="17.05426356589147" width="19.715447154471544" height="3.4108527131782944" as="geometry" />
        </mxCell>
        <mxCell id="ZBw0nQ9lH2d1jffSdDRH-77" value="" style="ellipse;whiteSpace=wrap;html=1;rotation=90;" vertex="1" parent="ZBw0nQ9lH2d1jffSdDRH-69">
          <mxGeometry x="10.646341463414634" y="41.95348837209302" width="19.715447154471544" height="3.4108527131782944" as="geometry" />
        </mxCell>
        <mxCell id="ZBw0nQ9lH2d1jffSdDRH-78" value="" style="ellipse;whiteSpace=wrap;html=1;rotation=90;" vertex="1" parent="ZBw0nQ9lH2d1jffSdDRH-69">
          <mxGeometry x="66.24390243902438" y="41.95348837209302" width="19.715447154471544" height="3.4108527131782944" as="geometry" />
        </mxCell>
        <mxCell id="ZBw0nQ9lH2d1jffSdDRH-79" value="" style="ellipse;whiteSpace=wrap;html=1;" vertex="1" parent="ZBw0nQ9lH2d1jffSdDRH-69">
          <mxGeometry x="41.00813008130081" y="68.55813953488372" width="19.715447154471544" height="3.4108527131782944" as="geometry" />
        </mxCell>
        <mxCell id="ZBw0nQ9lH2d1jffSdDRH-80" value="" style="group" vertex="1" connectable="0" parent="1">
          <mxGeometry x="1342" y="190" width="97" height="88" as="geometry" />
        </mxCell>
        <mxCell id="ZBw0nQ9lH2d1jffSdDRH-81" value="" style="verticalLabelPosition=bottom;html=1;verticalAlign=top;align=center;shape=mxgraph.floorplan.chair;shadow=0;" vertex="1" parent="ZBw0nQ9lH2d1jffSdDRH-80">
          <mxGeometry x="37.0650406504065" width="31.54471544715447" height="35.47286821705426" as="geometry" />
        </mxCell>
        <mxCell id="ZBw0nQ9lH2d1jffSdDRH-82" value="" style="verticalLabelPosition=bottom;html=1;verticalAlign=top;align=center;shape=mxgraph.floorplan.chair;shadow=0;direction=west;" vertex="1" parent="ZBw0nQ9lH2d1jffSdDRH-80">
          <mxGeometry x="37.0650406504065" y="52.52713178294574" width="31.54471544715447" height="35.47286821705426" as="geometry" />
        </mxCell>
        <mxCell id="ZBw0nQ9lH2d1jffSdDRH-83" value="" style="verticalLabelPosition=bottom;html=1;verticalAlign=top;align=center;shape=mxgraph.floorplan.chair;shadow=0;direction=north;" vertex="1" parent="ZBw0nQ9lH2d1jffSdDRH-80">
          <mxGeometry y="31.37984496124031" width="41.00813008130081" height="27.286821705426355" as="geometry" />
        </mxCell>
        <mxCell id="ZBw0nQ9lH2d1jffSdDRH-84" value="" style="verticalLabelPosition=bottom;html=1;verticalAlign=top;align=center;shape=mxgraph.floorplan.chair;shadow=0;direction=south" vertex="1" parent="ZBw0nQ9lH2d1jffSdDRH-80">
          <mxGeometry x="55.99186991869919" y="31.37984496124031" width="41.00813008130081" height="27.286821705426355" as="geometry" />
        </mxCell>
        <mxCell id="ZBw0nQ9lH2d1jffSdDRH-85" value="" style="shape=rect;shadow=0;html=1;" vertex="1" parent="ZBw0nQ9lH2d1jffSdDRH-80">
          <mxGeometry x="13.40650406504065" y="10.914728682170542" width="70.97560975609755" height="64.8062015503876" as="geometry" />
        </mxCell>
        <mxCell id="ZBw0nQ9lH2d1jffSdDRH-86" value="" style="verticalLabelPosition=bottom;html=1;verticalAlign=top;align=center;shape=mxgraph.floorplan.water_cooler;" vertex="1" parent="ZBw0nQ9lH2d1jffSdDRH-80">
          <mxGeometry x="33.12195121951219" y="30.015503875968992" width="31.54471544715447" height="27.286821705426355" as="geometry" />
        </mxCell>
        <mxCell id="ZBw0nQ9lH2d1jffSdDRH-87" value="" style="ellipse;whiteSpace=wrap;html=1;" vertex="1" parent="ZBw0nQ9lH2d1jffSdDRH-80">
          <mxGeometry x="41.796747967479675" y="17.05426356589147" width="19.715447154471544" height="3.4108527131782944" as="geometry" />
        </mxCell>
        <mxCell id="ZBw0nQ9lH2d1jffSdDRH-88" value="" style="ellipse;whiteSpace=wrap;html=1;rotation=90;" vertex="1" parent="ZBw0nQ9lH2d1jffSdDRH-80">
          <mxGeometry x="10.646341463414634" y="41.95348837209302" width="19.715447154471544" height="3.4108527131782944" as="geometry" />
        </mxCell>
        <mxCell id="ZBw0nQ9lH2d1jffSdDRH-89" value="" style="ellipse;whiteSpace=wrap;html=1;rotation=90;" vertex="1" parent="ZBw0nQ9lH2d1jffSdDRH-80">
          <mxGeometry x="66.24390243902438" y="41.95348837209302" width="19.715447154471544" height="3.4108527131782944" as="geometry" />
        </mxCell>
        <mxCell id="ZBw0nQ9lH2d1jffSdDRH-90" value="" style="ellipse;whiteSpace=wrap;html=1;" vertex="1" parent="ZBw0nQ9lH2d1jffSdDRH-80">
          <mxGeometry x="41.00813008130081" y="68.55813953488372" width="19.715447154471544" height="3.4108527131782944" as="geometry" />
        </mxCell>
        <mxCell id="ZBw0nQ9lH2d1jffSdDRH-91" value="" style="rounded=0;whiteSpace=wrap;html=1;" vertex="1" parent="1">
          <mxGeometry x="910" y="291.5" width="580" height="17" as="geometry" />
        </mxCell>
        <mxCell id="ZBw0nQ9lH2d1jffSdDRH-92" value="" style="shape=image;verticalLabelPosition=bottom;labelBackgroundColor=default;verticalAlign=top;aspect=fixed;imageAspect=0;image=data:image/png,iVBORw0KGgoAAAANSUhEUgAAAE4AAAB4CAYAAABcicStAAAACXBIWXMAAA7EAAAOxAGVKw4bAAAgAElEQVR4nO29Wa9l2XEm9q21573PPvOdb05VJKtYJCVDFFuG2XYLsg0YLfmx/dzon2H7lxiw/4LRb4akfhAtWG5LalG0UGRRZFVW5s07nXna4xr6IdZa55zMrGK50VCjjT5AVlbecZ/YsSK++OKL2Ewp9VcAfoj/9PrGL8454/+hL+I/1tf/LwyntYbW+h/0d/rf9Au/6sKY++/x5/9d3gYZQEEpDaUUtNbwAx8e5+43/abvZ+w3f92/j5dvfyGgIYWElBJKKyipIKSAEAJSSAhp/m5btKKFEAJt20JJBSklhJBo2xab7RpSSHCPo21rKCWhlIIQ5mdJCa0VWvP90n5cSdze3mIymaCTdXB2fg7GgcAPEccR0iRFkiaI4wRJkiNNUyRJiixLEScx/TtOkCQxgjCE7/vgzHvvm/73YVzjcQr/8l/+7/jZ3/4t6rp2rn94BBhjYIwdeB6D/f10IRyL+RJ/+Vf/GnnewUcffYTxePwVF05/wDT9HNDPXS1XSJMMbSvIZRVDUzcQdYPtek0fY5z+YgxaM2goUKTW5ho5PM9DFEVI4gxBECNJYsRxgl6vhzRNnNGTJEGaJIjiGFEUwfc9cO4dXefBVR+/B6XUX7Vt88P/7X/9X7Db7bDdblGWJZRSzlic8yOj2Ttm/835u6HSfs/x11tjMzC2P8z2iNk/x0Zm4AxgZC5IczPtzTIWBmMc+iBAaGgwcDAwQGkwAIwzaKWPLMIYg+IAYxph5CNLU4Rhiiwjr07TDFma49vf/jaGw6G1B3MxzvM8ZJ0O0jRF0zSoqgpFUaCqKkgp4XkePM8D5xxaUwySUsL3fQRBcPRmDw1xaDiAQesDj9NkDM4Pvs45NHN/MXu/GcBBHud5HIwzeJw8DAA4o2sENzcOHGCABwbOGJjxJjKwBmcc4AzgdK2e58EdKA0URYWiaPCg5vj7X/0K/8M/+2cIwxAA4CulzEUxKHORcZIgSRIMBgNUVYXNZovtdoPdbue8yXpZFEVI0wxhGLk3H/g+PO7B8z1ncMYYPO5R7OEc3OPAWx7seb676EPvUYq8zPN9SKn2YQTCGY180txUBmil3e9nAHzPh29usOdzcM7gwUMYxWCMg3EOPwjh+R6gGfxg7xDFrsDf//LnWK1WOD09JcPB3knOoaUAOINQEoHvg2mGJMmQdrp4nqSIQx9lWbjj/Mtf/j0WixXOTi9wfX2NbrcLz/PQtu3R0dYaEEJCcqAVyh3jIAjAjccopcA4g+/78H2fDOV50NDQHofv+2Ccg2vA8z1IaHBOH/fBEfgBOPfBOAM8Du55CMzPYYyBex6YAhjjUEqhaRp3fUJI1HWNqqggpYISCkrRdUql8HB/i6bdod/vu5vp2zvOGAPTxoAApFTweQAFQEuFNMvQyzOkVYLrq2cYDoeYzZb4v//iX+PzX3+J6+sr/PZv/2e4uDhHFEXOK6Moct7k+x601giCAFpr9zVSSnMN5Jk2VJRlDc0YWiEABkgpIYWA5/suQUBreNyHz30IIVwIsSfDxmillDmK2nmpDTNRFCMI6IYFngduPE1rgHOGBwDb7e4oJJHhQMcImkFJbX4hB46yKBnzf/yf/mf883/+LxDHMaQUeJjcQ0kPrdAIoxR394+wGZcxBqXo55GxFBgYwjAC97gzXhCE4JzB93xwE0etN3meZ7wwgOdxQHlQrQZjHH4QQEOBgztj+b6Ptm3R7XYxnU7R7Xax2WwAAGEY4vHxES9evMAvfvELfPjhh3j9+gZRFEJKidVqhfPzc/ziF7/AJ598gr/+63+Djz/+CH/8x/8H/vCP/rujxGWOKnNxiGKKMkkAEEIgNLiIMR/QPgb9MfyA4/mLF9hua1RlA6kULq8ukKYdRFGEKCLDRpEPxjiapkGaptjtdvC1hmwllsslrq+vMZtNkSQJPM/D4+MjPvjgA9zd3SGKIjDGcHNzg+9///v49a8/x2g0xHa7w3Q6wUcffYxPP/0U3/nOd/Dy5Rdo2xbn5+f47LPP8IMf/ACvX79Gp9MBADRNi9PTE0wmE8xmM6xWK8xmM3DuYbfbYjweoyhKPD5OoJTCp5/+HIDGy5cv4fs+mqbF4ctF471jcXge5TGlFB4fH3F1dU1pnMIhfv7zn+PXv/4Cn/3y54ijGAwcQrSoqxq/+tWvsdms8cEHH+Dly5c4Pz9HURSYTqf4+OPv4vb2DYIgQKfTwWKxwHK5xHK5AGMM3W4Pq9USi8UCVbWDEC36/TG22y3+8i//Ek3TYDJ5RKfTQV3X+NWv/h5NU+Pm5jXqugGgsd1ukWUZ1us1iqJAnudYLJbgnGE6neLLL1+h3+/jiy++wPe+9z1stxt4no+6rlHXFQaDIYpih04nA+cMnO8z7WFlwilt22Nl4x23iQrb7RYcDJx58D06OruiQJZluDi/gu8HCIIAcRxjV+wgpUCaplitVsiyDHVdI0kSdLtd7HY77HY7KKVQFCVmsxm0VphMJmjbFqvVEm/e3CJOAtw/3AKMY7PZYD5foNvtoq5rc/cbKKUQhqGDEVEUulgdRRGEkEiSBG3bYjQaIcsyRFGE6+srlGWJ8/NzB6s4Z8iyjonNDEVRwvd9bDYb+L6H9XqFKAqPPM5ZiHPPQQxnWQ30uj14ng+tFKRoEYYhfvSj3z0CxjYTUgKgo2kReFEUKEvKVmVZIIoi1HWDNE1wenqKpmlwcnICzj10u11cXV1CSo2T8SXCgFB+HNORbdsWQRBguVxivV6Dcw93d/dIkgSTyQR13aBpWiyXK8Rx7BJC09T72tf3ISWVhxbobzZb7HZbRFGEtm3R7/fd357nodfvHoWyA8PZEuaYZeCc4fLiHEoJeJy5jOR5HrbbLZbLpStvGCiDVlWNuqYa9fPPPwfnHPP5DPP5DFEUoSgKeJ6Huq7RNA045xBCQGsFISSEEM6jyrIAAHQ6HWw2W4RhiKIoMBgMMBgM0TQNhsMBCnMC4jiCEC2KYgetFe7u7hAEAW5ubjCfz1FVNW5ubtDr9VAUBeI4BkBYtGkatG2LOI4RRSGEEOY6K5dwjmyjlMKh8fb4S4MxQuic0+fCMHQpOcs6ODs7c3cyDENopdHrdZGmCaqqwsnJKTzPQ7/fR5qmzqt9nwz38PCIOI5xe3vrjurr168RRwlmsxk8z0NZlthut+737uGFRNPU4JyjbVuXAMIwwmg0wm5X4OTkBE3T4OLiEoPBEEkSYzweO+zo+z4WiwWkFFitVnjz5g0YY1itVuj1etjtdkjT1IWI9xxVDTAcGc2+LMayR9j36QiGYeCOqpANwKRjTKzHcM7cXex0cjRNgyzrQAiBbreLJ0+uUVU1rq6ukKYper2euxlBELjjOZ/PEQQ+7u/fIAwDvHnzBpPJBEHg4eHxDmmaYbVaoWlqYl7aFkFAuK6qKmitUNeV86LVagXf91GWJUajETzPx2AwwHBIXtzp5AiC0MRQjrKsEEXx+2OcZ2KShSFakycyzqAZILQysIVKpqqu8Dh5QBj5CALfecL9/T0F+DjGarWC53lYr9cuwEopHM1EdFQLIWoUZeEAc1mWiOPYxZnLyyvUdY3Ly2torXFyMka/34PnA1mWQCnpAn1RFLi7u4Pv+3h4eECappjNZu6oFUWBNM1cyAEAIVoXw4qiQBD42O12SJIEWmucn15BiNY5zzsxjliGPXjV9AliJKChtHLEQtvUOD09If5OSYfV4jjGyckYWmtXgnme7wKzBaOr1QovX36JLEsxmU7AwLDdbrFer90FB0FogK09BQpNUyOKAsSJj7JokKWUbcfjMeI4Rp7nePLkCaSUuLi4AMCQ510Xp1arFRgDbm9vHSBmjGG5XKIoCmc8ShTEFZb17h3Wxh1V7jGAqWNmg3CKqys1tLsz3V73gAHhJnFQRg1DCq5BEKBpGvR6XQwGA5Rl6TLVYDDA06dPIITE2ekFwjA0MELA930slytISSD51atXSJIEj49TBEGIyWSK+WyFIKBkFASBK7csIVDXtYl7tQsrvu/j4uICbdu6kHB2doYs6zhYZbNtEPgoih2iKMJutz6KsXvDMUYUi+YAVaeEjxgV1VzD8HPclURaayyXSwNHrOE4Fos5ptMZfD9AWRIe2u12qGv7BqWLo5xzNE0FMIW2bRBFFNirqsLZGSWW0WiE6+trh8cIM6bw/RCe52OxWLpjWVUVdrstJpOJo8fiOIYQ4qhuphhN3sw5Zc4sI2IzCAIMBgO0bYvBYAjOOdK0d8DCwIY0sp3jtA6w3OExtkeSMwLMq9UKeZ472jxNUkgp0e12kWUp0TaeB8Y42lZguVwiiiLMZlNIKbFer/HwcI8s62C9XoNxDikJkoRhaDyfak+Kd+IIjoxGIwAaz58/gxACT548Qa/XQ7fbdV5tT8pqtTJ4ssSrV68RRREeHymj13UFz/MctW+TUlmWkFKiaRpEIZ2EI8MppSipHmROxhjRM9Y1tWFQGXfHdzAYuCJcKY3tdoeqqpEkqUvhcZygaWqMRkNcXl6iLAtcXFwgiiLkeY7hcGhiXwhtcNvj4wPCMMTd3T3aVmA6neKLL75AnnccbiSOcAPGmMGMCgCxKgAQxzHKskSWZaiqCufn58jzHN1uD5eXl2CMo9frwfd91DXRS5vNBtvtFkJI7HY7dDodCNFS+JD1ux5nY5xja7kG4xpay4MvI8qZ2yNtDGoDve/70KDgv16vsVgsTLnTmFJuT/UoJdG2jcNSRVGgk1Eh3ulkODs7Q1VVuLy8QBD4yPMco9HInYA4jk19uwQA3N3dIcsyPDyQobXWqKoKaZoeMc8EsjXiOMJ2u0EUxaiqirKz5+Hs7Ayj0QhhGKLT6Tgo5Hk+lsulY37fMhwcLU6U0J72tljNko3co295eHhAEAQOAHO2j3P266uqAgCUZYnHx0ekaWoAJ5U86/UaWdYxmM9zANmyM3sM2MFms0G/3zew5MpkTODJkydoW4HhcIg4pgpguVxCa2I2wjDE7e0bV8QvFkt3UynGceepbds6LyvLEnnehWhbnJ9dvBO+9nDEBHyYsuuwNqPTSh+3nnN2dmaqgX1MFEKg0+mg1+uhLCv0+30wxpBlGU5PT9G2LcbjMYIgMHjQovel48Nev75Bmqa4u7sD5xzb7Rbz+RydTsddQ9vSG6X4KtA0tWGNgSQJ8eTJBeq6xvX1NRhjOD8/d9BImHr7/v4eaZri/v4enkcnRcp9fPV8H1JJtCb2HVZYB4YzzQwDQWzWpKO1hyjWM61HEf0MaEUdrCAIsNlQbyIIfEeh259DxwXOYHmeY7PZ4OTkFFmWIc9zvHjxHEopnJ+fuzfRNA08z8PDwwOiKMLDwwMmkwmSJMFmszFBvtnfYCh3WpqmQRAErrF0cXGBsqzw9OlTSClxcnKCTiczSYG8fLlcIkxSbIoCYRCiqgtDXhwU+dZjjnsEx8W+9SYArsKYzxdoakFdUdPXBCj7VhUVxqsVYbHdbof5fI40TbHdbokCl7Y0CsAY0LbChAsPUkqHzbrdrkkseyro7OwMvV7PGYNzjt1ui6ZpsCsKfPnyNZIkwWKxQBiGpuzS7j1yztyNJLhEJIHncXQ6HYxGI7SyRTfPiaZX3hGUOTqqcDQRP/Iu21+1XkhOydHvDdDpdExnHqYI1uj3++j3+yjLEuPxGL7vI0kS9Pt9SCkNI0HZcLFYuONS19SOnM2mLivaG0Yet2eSLdnQti06nQ7atsXp6Sk6nQzdvIsnT54CAPI8NwB2Z3oYpQHTKWazOaIoMnGOMnLTNAZRcDRFSaWmaNHr9Q+IXmM4m8o9E5RtH8AGSxusrSGlIoAchqE7qqKVrv9q6Rnr9hbB22wXxzEYY4jjyLHDFxcXhhaKHV1eliUYozLs9WvCXm/evEEYRpjPF9jt9rSQ9SQhW1O50NGN4xhFUWA0GqFjesZXV1R3EtbkWK/XAIDlcmkqhgDFboc0ywCjYVGqxdtqGHPItPM4QB918emi6OJsSteAi2WexxGEniM0d7sdptMZgsDHbDZzR9cWzcTBHXowMwGfUr89zr1eH5wT3nr69Kkrk2x8FaIBIPDweIMoDvH69Ss0dYuqqjGfz5HnHYfvbNixoaEsS3Q6HTRNg/F4jDAMcX5+jtFo5AhZDmCzXCIMA6zX633P99BwljqnN8JdjNsbD45NPUwcJ6cnkEpAiH2RPxqNMBoRPTMYDBBFETzPMziICmgiMVvc3t469kII4tdWq5UhN/fCHgAuyNd1jW43x8XFGaq6wvnZNdqmxdOnT9DpdI5IR0omIW5ubrBcLqGUchnavhfOPXcS7OnKMgLwtjrp9rpfwccxuKx6aLBDbYiNN/RxhX6/h7Zp4PshYDQhtkcKwN1t+z30psmYSZIgikJcXz9BXdcOg2mtnWfe3d2hrmsURYGbmxvkeY7tdksNb9Girhv4XgTGuAnyIbQmgHx1dYWiKPDs2TN4nodnz545GGTf36tXr5CmGW5v3zjg3rbCJSUKL0BdNwj8AFKK9xhO73Gc1XHY2GF/gPM0DQcRVquN0Wv4EEK6mDGZTJBlmaGw4Trn/pEkgsPzOJqmdZkxDENcX1+jqip88MEH6Ha7yPPcMBkaQkgEQYj5bIbbuzfg3CPGOE4wnU5RVURWlmVJnGFVYbcrXLjwPN+QCPXR8U/T1MQyiuWz2QxZlpmbGEOI1jWwjvg4DVNOcQ4llfsCm7YPcZwfENBcrzcYjYam+BcIAh9KKYxGY4xGI8P2ZgjDwL2ZJEmxWCwNW1Lh/v7elFArl0Vtcd22AnVdO1ajKHbI8wx1Q8zJxfmlgyaW66Me6Q63t3eIohjT6RRRFB5oXpij7j3Pg5TCFfj9fh/dbg7OuetnAAT415sVgsB/t3IgCZQ5tfxY80Gehz2Y1WTM09PTvXISynX9PVOSWSpHCIEoitDt9kzZ1EOWEeDs9/vQWrkyraoqPD4+Is9z3N/fuyy9Xq9dp0uZMsnzqFuVZRmapkG/30eSEJH57NlTCNHi5OQEvh84b9put3j16hXiOMZ8Pndlof09hC8l/MBHVVWOXrJ9isNTyC1281zQP9aoEU7TJE+A58ArANN39AHNIU0sE4IopCShho11fytTPYydtkfa7/cRxzGSJMGTJ0/QNA1OT0+RJAkY46Yz5uPu7h6ce3h8nOH+/uGInrcwiOpN4Vp/VVWaZlGGLMtwff0ESimnHFiv1/B9H/P53JGxom0Rm1ahMmTHO7SSi2dOHKhdg4bYhBic0RHel0/SHQPqTShXqoVhhF6v53oASinUdYPFYo5OJ8dqtTqIQbWDB/Zr6U1XDnyHYYCTkxOUZYknT54YsnOIfn9gDFMZGurOZezpdIosy45CDNH7DElC2I5oI4GzszMEQYjxeGwIB0lhgzFMFwtkaQ9VVX91X9U3Sh7jhu5vIcSBUeFS9mg0QpqmADMyPZN1fd9z3mYZ1SDwMR6PUdcVhsMhut2uCwFBEGC93jiW2NJETbMHzvaI2IBPRz9HXdc4Pz9H07R48uSp8dzEUUq25Lq9vcVut4MQAvP53BlVSmVakIW52Qqe5yPP6foGvR7apkXbwMGR4+RACNdYlB14i3REpgXB1kAUH0pq3miKfZx7TsXp+8E7ePCQZbDgtmkaXF1dYjAYII6p76k1ZWEhBHa7Hb788kt0u13HmGw2G6zXG1N2GRG2pGTCGJCmKcqyxMXFhWGHn6LbpR6JpZBubm6QplTP2mu1N1MpysIaFNt7vfwoMRx5HHfQQ+2hhxEM78XK2n1usVhQOaXhUjVgtW+A73uYzWYoyxJVVWE+nyOOiTy0XmNvkIU3AOnoyrLEcDhEGIaGMXlhGtwnrvZcLhcAYPBY4jg4K0e1P79tW9cLjqIY5+fnaNsWL168gNbanArfUet1XWOz2aKTdKAEOZSUewnFO4ZzL73PiDbuKAM5aAZBQQqJOIkwGPYN/lPmIgWiKEaWpU6jZo+rZTMOG81EZGYOg1E9WzoQarOcpchtXByPx7i6uoLW1HOQkgQ2ALDb7fDq1SsEQYD7+3uEYehYGq2V+5m2WU0Vg4dut+fo9CRJoJTGbDpDGJLc453K4e3C3gb5Q0bE930oLVxVYCEG1ZcePJ+oJd/33FyD/UX7aoPufhRFCMMQSimMx2O0LcGGNKW4Q92wEA8Pj4bRqFxpRsYjOGSPqDWAvUFRFOH582dOzBMEgQPGu13hYijJGgIDyElSUdc1lNYmBDQ4OSU8GkbRV0kg9vhEScDjAaD3NasG4PHQtOQ8SEV3bLvdkm5Oc3C2p72pUUPUUFmWAODKJaKJWtf82CvaqVwbjUYoyxKXlxfI8xxhSN4KwDWMJ5OJA8+bzcYRlZZytwQmNWNqnJycIs9zJElskkmD7XaLMAyc3KKuG0itwYIAZVMjCD0AGlIJhKH/boyjX+QE8QZRS2c0K3DRpt/KOcOf/umfUCbq9ozwjjr8lKWI2bXN3m636zyQGb1bXVdo2xaz2Qy+72O7pYxKnkicnzUq55Sld7sdTk9P4fsBRqORAeDK1cHT6RRlWRrx4cTR9nR64GjxJElMfTyClNKBW2ZuXF3VroNWFMT82ib3e+GIbcJY7zv8Qgrigvqq3EOWZRgNTeeJKSgtTfAk49rMa8G1BZx1XaHT6Zh+rEKapo5IBCiDTSbU1CG9Gx1NGxosa5IkCbKMvtdq7J48eeoyc7/fh1IKi8UCURRhMpmirmvDRheO+/M8H2AMZV0jikKEQYDYVDkNNFqlwBC40/LOUdV4dzrGGs12gpixsed7+NGPfgTPI8pZSTqq1tj2GNgMar2irhsTm1rHyTFGuCzLMiRJgjAMXeUwHA6RJAmEEE7dOZ/P4fuUAdfrtWOgLRcopTIyWVJGnZ9fuL5CmqamH7uG1tpdY10TuNXGq4SkObSyLJElCaqqcDTUkeHebkgfnOGjtiAdIQ7f8wHNMJvNkSQpfD8A6YU1OCdu3pKE1D6khLJaLV1PlNSUHNvtxsUje4OscZMkcQX+xcUFmqbB2dmZw1yWVH18nBhWeOZUS7a0szU2ABcu6Lj7uLq6hNYKlaliNpst6qYB4wxCK+IROYeGcLDp0KH2fdUDgrIoCjw+Ph5wcHxf8HMOpRW63a57o/saVDmKyCYJgKoDe6TOzs7Q7w9cHI2iCKvVGuv1BlJK14egpOGbyiNwF2+P+3g8RlVVuL6+glLS1LVEtVuK/e7uHlFEtJDW2g2/2dGopmmQ5zk44+jkHYRRhKqtUVQFWimw2K7Q6WRQSn61dsSCWPvv6XQK3/cNc6v3WctUAWEYOsYkCD3HijRN4/RtdkLGBnCrQaFmM/VgqakzwnA4gNbalWObzQZlWaIoCrx8+RJJkmKz2boMSsDWd5BpOByh3+/j5OQEn3zyCXzfx3e/+zHSNEUURabXwbFcLpwxLPFaViVaIVDVDUI/xCDvgyuFzIQK27V7b3Kwb1xKKnItaDwskSymAwho2mNAjAo/6rnarJymqWvsWE8izW7q+qz7coc7pfj5+QXG4zHSNMXTp0QT2WM/n89xc3ODIAgwn8/BOQmkq6p2P4vIR4a2bZDnXXMdAfKc9HQULwOsNhQulNYIwgAe5xBNA0iN0A/R1BI9c7qOPA7veaVpimfPnh01k7WWboyPgTk+zfd9mjfFniqyyu48z92Ahj3apCjKTTffQ6eTQWu6YZ1OB0EQmj4F9UotV7bZbJAkCaSUGA6HOD+/cEMbnsfx+eefYz6f4+HhAZ999kvXPrTCRCvOiaIQdV2bcEF9W+552Gy2KHY7NHWNum2BwIfQAGAGn9/fyccRAxLHsWNWbcbSkE6xRO29eK8PZtrESLjqgsQ22unhLAVkKwcppSvDut3cdcBev34FpRQ+++wz5/WbzRaRmfKzXh4EPpqGFFEk0rlCt5sjDCNEUYiyLPGzn/0Mbdvi8XFi4JHnsqiUAo0QEIqmtWksgCT+UBpNVWM2mYCZnutXetwhZrN/rJXpSDHzbw1pyqrD46yUcOVQVVUIggC7HY1r+r6HpildTLFg1HbGrFdttxv0ej3UNQmq87zrEkIQ+JhOJwAoeW02G6NdYbCzY3QjgTzvoigKNyJpIdJyucBsNkcQhKjqGkFoko5U8D0PSgj4nCP0PUS+j9PxGFrL45L02HAHrUAOI2vVLjtyTuJqbZgQrTTW6zX6/b4REDJoCACUVdM0dV32OI6htUYYhY6FKIoCWmtsNmunCTmcOyDayndx15Zh4/GJ8XQiR4UQePPmDaIoxHK5PGh4w8Va+lhkKgCFJInRitYF++VyhSD0UVclOGOIgoBmXTkpTe2Ezlfo496W6u8bxY6b0y0Yb+nOKIXhcEh8HdfuR1nhDQX8/cWTLiREXbdI0xTdbtfxdtpwfdYQt7e3Bu8tTMPbg50r833P8GNd1/l6+vSpo5EsFf7y5UvEcYL5fO5uhBB7vd98Pgf3PNRNi+FwgMCMWkmpsCkLbHZb6sC15OnAPgQ5wzl5w9sS1gPmdS8O1NTN0spM12zQtg2UIj0J5xxFUWK1WiJJYsdvJUkKaS7csiRWA0KBuofBoA8hJC4vr464v92uwKtXXyLPczw+Ph5QQiVoGke4UScCzDGur69RlgXCkOLpw8MDVqul087Zsaa6riHEXiTkRyE1fLodSEVsilIk3fiKo3rcgCZG5HATBCAFwOC5zy+XS8RJQiPlmjYyEK5iGI/HrgNFs1sVqqpGHEd49epLfPHFrxCG1Laz2I6CN8Wq3a5At9tFHMeI4whPnz5F07Su275crvD69WuEYYj5fO7UB7butRnVyr9OT0/R7/cdAy2EwMuXL03VUkNqDam02YDBIFoFKZUjKCzj8v6jyq1KaV/gHzZpiQXRTuRsR4y0GeTnHkkYrM7MSrAsSO10qME7GHZxeXXufnaSJG5Sxja0qUe7l5YR5V0jyzIT8/JI7ksAABvnSURBVIZ4/vy504KkaYL7+3vsdgV2u51riDOjNuKcu7GiPM/RtALXT5+iqmq8vrlFEMRYb3YAPMhWQMkGNPLUQLTiHfBL9jhozBz2CCwNfagVof4DcfJxHEMKaSgXwxCD2nOLxRye56NthTuSVVWiMMfHauA6nQ6KosDl5RXG47G7u1EU4e7uFtvtFkopzGYzA2EMA21gEGl4+yiKAldXVxgOB0dNlZubG8MAryne+j6kUhAmszdNizRJUZcl0jhG6Hsoi61TolOCGzhneifGaa1dz+GQW3feZqghxmg7gjbnnmRedisDQxBQkKVMSiryoiiwXC7xxRdfIDGN4M1m4+Y/iUgkhZBSdDzKssTV1TUGg4GLdSSxf3CN5dlshjTNDuCQcgTpcDh0kMbycUoprNdr3N7eGeamdoxxXZdoqh1EUyLPM3Q6mYFNGlVVozTjUl95VK3s4X1H1ZKC3BT5dV3DDzy3ioJwFGVkz2NOD5xlGdq2wdXVFe0J8Twoc0G3t7eGL5tgtVo6oZ/FY/Z393o9bLdbp/M47JW+efPGqS+tmt2u2CCdXYU8p0olyXKMT8/RtBLT2QKe52M2nQJaYrvdQCpagyQFAfcs7ULIvabvvYZ7W610cJahzECcUgQUpVTI8xy+EdDYJkjbNBCygpA0sXeo/+AeQ9PQRXRy4tFo5oA5nCSlxOPjI7Isw2w2w263c90qe1JoiC3FYDCAEAJXV1cungIMm80WNzevjeinAGMEgIuiglIavpGKnZ+doakrBB5zjZ3Neoe21ZCCw+MJlOJQ0oPvB+83nJVvUnDg0IpBq/3aCXaQdSk5UNAuzFF0BEDgQymgKgnAfvHF55hMHhGGITabNexsQ13vSxg7Q9/pdKCUxvX1NYQQSJLE0Opb3NzcoNPpmAG2fW/Xvhk71xDHEZKEykUrEaPZrwmaA2mEHWyRbQ2P0/6ms7NzpGkHu21BUopGotjtEITM0VJHhrMxwKnOscduzvuMsW2cU0phY1gFAojaZR7fIwaiLAuMxyOjXKpNLAvxcD/BcrFCEARYLBZmUK41HTO6UWVZGTYjQhAEBo5Qjen7Ph4fH/HmzS0432s/LD6ka6LOFvUVFMYn50hT6mxNJxP4nGE1nyEMfPgBhxAK0BxV1YB7HqI4hFItGNMQ7V4b/N6jioNP1HWNzz77bI/tnGqJNm/Z+EVvzDtoKrcOihwWxkppJEmGsqCp6dGIcF6apmbOgQbn7PoMKw07nPip69pJF8bjMS4uzl1Lz/M8ox0hqZgt3+yQiZWhdrIUVxdn0LIFZxp+wHF/f0dZv24ArSHc9GBgkhx7a0rnLcMdAuC3B8IYZw4CeJ5nsI2HtmlQlpWDCHY6+csvv3Qdd5JoxWCmbLIJxjZgqqrC6ekpLi6ow57nXURRhOl0itVqBYBGA6IocrS6ZWyoJztG0za4vr5Gv08Ega0O7u/vEUYBpKogRAUtJWD6It1ujqqqcX52DsY0lss5lNaYz+fYbrbGixWs9Pdr2RFr1bZt8erVKzcirtTBzINhg+u6QWNGuOlIc9eBt+vCwjB0TPFkQr2ByWTiEoDdb8S550IAdcMaXFxcYDgcAaAxdhoMuYVS0pR1KzObwKCNxqVtqRa+uLhwc1q+72E6maKuGtR1hfV65XaKwISiVlQYDYcIAuria2gU5Rbr7cLVx2+/3rsFIs87+PE//rFhGeyfvccISa2/LEvd3T9Uq1tWIjFbwaycijFgMBg4sc16vT4w5sRBF5t8lCL6ieYmCjx//gHyvAs76y+EwJevXiI20i3XkWMUTuI4Rl3VODs9R5Z1XLIrygKvXr9CaHg7rTikkqjrAn4AUIKWiOMQ2+3WIYP3Go67xKDBONDpkITLUky2FrT8VRzH0Abn7YlKEthYsV/btm5dBu0dqYw2I0XbCpycnEApiV6viyyLnLaNpqEfzQwCGYH6ogR+u92uUSK1uLp8CiWpvrWj47bLT0JDgbYlb+OcU7NcKoxHJ5BCYz5fmlGqtQs3SklEhgbjnB/NrH31UT3YBuHmHXC8HoeKZYmyKow4Bqbn4DtJAxXjSzOayVzwJyMQR0Y1ZIk4CZFmCewMl9UPk3aOCvper4/Vau00cnR8iGWu6xqDQd9BmDTNHEWVJDFJNbRtmMNxbLWBIZwzowvmmM2naNraycy+6vXe5HAIRWjxp3I9BXtMiqIETbEksLVcawriLMvcaorhcASlSN7vB8TtWzz28HAPz/OMqLB1INiOhFtD2CZ1GAZGvrrGmzdvnFfZG2yBcLdLDemnT58C2C/cspOINABcmzKtdpQ+zTjQDdtu19jtto6I/VrDWZbTxrK9KBBuHJMzBiGF6R3E5mtglgAU7s3bn6O1glQ1/ECjrnfodnM3d2+bM5v1Fps1FfTT6RSH40yWYbFJxzaVT0/PUBQF5vMFgoBUl1Y5YJOO5e2SJDUxOXNT0w8PD675A5BoXGlpFh/QzL4VKH5tz8G+Dr3uEAiTuJA0Jm1TgXMGKYVTENmZ0bqm6Zg4Jrk8TQ3G1CUDsbj2ptDoeYuT01Oa2GtbI4eI8fg4cT0NCy/Iq4gUsGt8bFPJjrrvdjtTv6YOuliFpz0NAMPl5SVNG+52lHmnj+CcaCj7ccvdWUz4tTGOYc+SWENaSl0IwkFCtqjM5pgsy4hSMroyxpibc6AM2kXTtNhsdgiCCLMZtfDSLEYrSghVQMrGYC3h9i9dXJxjOBw6kpM2PTy6YQ+7Jcxq2bIsA/c8dDodPH36FHVdGSkX7Rax78kyOkopFMWOOm1KIIpo/PPh4cGRoFY28bYa89jjmNmOejANvafVPWizIo3WQFKvMghC18yxb8ju57BreoIwgGgFhoMRtAL6/T56vR6qaofFYooopM0Qj48T5N3csbnkKUSgWrnDyckJwjBwtJKU0tXCVVVBG4Bs9SjUF1EYDEgWu1wuMZ1OEQQ+qqp0M6i2itFa4+TkxA0Q7xHBfk3SseHe2gJx6Gn7qoD+HRjEbps6NvPQRAypJKfTqZu5KssCSZLB86lZEwQ+wshHK1qMxzRk0u/nyPMOmrrG3R1toJlOZyiKnZvYEUI6SUQcxzg9PXXHCGC4v793e5RoiidxsZGUogq9Xg/D4RBVVRkMGdLWQkOZWQPZZrpVgX614czH7MoMazzXEjuoKqRSeHh4xBdffAHSwpHElfQZtNqn3+/D8z2H65TWeLh/AC14Kmn03Ey82IUHJH2ocXF5Su1E0/MsyxI3NzeuA2+vy8osqJFNpCX1CEjCBezXANkKyPKNVvplDez5AW5vb2G1xodA3iaJr29IHxTzh17HsB9VCoIAV1dXePbsmVFRmk2lzH6fBvdoNY/d0FVXND1Db6LGbrsFY8zsqORoGhoKCUIfjJH39nokZvY8D6enp5CSyEallJM6WB2yveamoW05ditXnuemd7p0k9Y2NlrSlMpEOtZRFJkpQsrodlLnbfnDkeEOPe7QaACgtIZWdvMMAcUoitz6DMYYakMx08BFtWdVNHeFvV2iMjTzrN1u16yqqLFc0gbC+Xzljg3BAM81W3q9nquB7cKq29tb2NVmTdO62tc2cpqGFo7SsaucWGgymSAIA9IBS+XEPjbGtW3r+r4WshwmiKP24NvneB+klSm7yLMs0GSMYb0mhaPv+4giWuVTVw3CIMJisTLF/cFxwX5ztO2rDgYDjMdjNLVAEpMs6/7+3hw57fqedtkVNbVzCCFxfX1twDdht91uh8fHBxf7bE1raSmbMCxSuH+4B+PMhQzL6+1p//Zrinwb4xh7xy0Zo+02BAtaZ2BiSEozAUhH2BbYeZ67zV2j0cgsSyEl+nq9xnQ6dfJ8rSmWBEEAIWvEiYey2uDq6sqRAfP5HGEY4s2bNxCideJr0u0J4700PRiGEdKUJGR3d7dI08Q5wH6nsI+TkxPUdYVuN4Pve5hMSJdiT5D1cnoswtfguENDHbqkojY9KPXu24dHfB1jaFvh0releGzNKoRwC6y63S7G47HR9q4RhgEmkwkWi4VZzeOBaLN9qLi8PEdR0opZ3/exXE0xm98jij1IVZmGETdzFKHzlIuLCyilsVgsHWttOT4pqQFu46TdczKfzw056oNzH54Xvfc0HhnO7hQ5NCJg9pQrBXWA7exmGbu/smkaaDO/ailxuzzK3jFLQdvYMxqNATDXhWpqidev3iAMImy3W1NDhobCbmn8HITLTk5OUFYFZrMZ4ijG/f3d0cypfbNNU2M47DvekAJ/hfmCFi5YqGXn/+3o+25XoNiVULr9DQAY77KcFsPZyeLDr7ESe8vExnHkVEp2/v1wgJawnZklMDMN1kviOEa/N0DTtHj+/IXTsdV1jaoq8eb2FpExmtbSsfx1VWE0GmO7pQrA9jHsKJLNiPb32DVp3ONIEtL3PTw8HEliKekwhEGCOE5RFkRoHDrSkeEsRQ4ca+SsLMIeYbughRa5l04dDgBSSfj+Xjid57lr441GI4QRIXw7GzWbzdyxro18gioQ2mozGJDis9frQymJm5sb2I2CpDNOwTntULfJKssyN9lsExMRB8yMJrUQgpgWO7YE0FYwxji2m5IeqWA4RBojjd8JYcdw5IAFPrawdkfAepvWGlFEJZeVcu12BYLweHDX8nMAUBa076Pf7zuc5fs+1qsNFoZQtNPQVVXSGgwQGK6qChcXF4jjBG0rsF5vISUwmdB2RAth7F5iq3C3JRhjtLZts9m41Y+2xWjnyoj/I/KUnES4r3375T5yKHt4+0xrrZ0Olkqs/bbpzWYLrWnldZLETsAcRRHm87lZRRs41M/Z/vkNttk8PjnBycmJEUgrBIGH+XxumIu94MUC0yRJaXpGKsQxbean4ly4VT82cVkiwvd9dDopojhws/+He+KIdwOur6/h+567+W17HDPfe1QPn2/2tvdptddwKCXNeE+FPO9hL/HiRplEnXq7Z6ltW2eEzXZDuo+kAyEUpKAxTlvUkxxLmuUECXY7O7cQOg+xsEJDotPZjyZ1Opmj3+12bNtntTs6adYhcZLZ+/t7RFGCphEQLY1cAcwB/KYt0LbvMsFvzSHt/9d63SFLcjj9YgfUbPzz/RBlWSMyi9utzteOWA6HtKjzkNpezEm/UdeNWyFraZwoiow0wncyB9od4mGxWGCxWJhZioAem+L7jhy9vLx0N8vCHXskLe0eBCHaVqLfHwIamJiNr2EYuepDSonAT74ZjjtU/7x9jA/LD1v6WAkEQBlWKu2mAm1Bb72xrhskSYq8Q3uPLi8v3YZ8q1C3pKU2/c8wDFzjh7ZEe25LV1mW+PLLL+Fxz4137nEk7UG3M7K+7+P+4dapN614O0kyCKFweUlPClguF+aINiQr0/uFVF+ZHDjjR0fUJoS3495hhWG9CwBN3Zk1QBZ5Wxnozc0NXVAjUJa1C9hlSV5CM/PA6emZ0ZpssN3Rpi07/qi1dnR6lmXgzMPTJ8/AGBzItY/I2pOcrSFbJc7Pz92zHm5vSXStDjR3lm0Jw9AtjvE4rR76jUf1sJu1t/B+0QHnNKUnpTqQzHODgxRC81wFW5QPBgO3rcF292lPOelwbYbeVyQtmoa6VoMBzXxZwy0WCwoP5hExtDBGo64bnJ+fIc9zB2aFEG6rITmAMDV2gDhOMBiMUNeN+ZoUed5171GIFlknRhRzlGXhSs33Go7ooz1WOxYYSgi5R+VkKM+xIxY8Eq/P3bofl1yYgkaNVpBEazweG30GxZTtduv6FHb7Kff2g8dnZ2ekyc37iMIYi8US8/nCxU8AjjLKsgy9XteRCFqb0BHsIUgUxa4vTO1B7jg8KVsjYZWQAojj1E0HvddwhxoRCztsYlBKmUev6KNjapcTW2MSI8HdkO98McN09og0jdCKGkrv5//tQuSmad1CZNvoiaLQdeaDgB53IMwqSCmlUwPUdY3Xr28cLW4FifZGWo/t96nkmkwmKIrCOQWRobS5x5Kwe9kajHRWuML/K48qP1Bv23Jpv3pHom3lQfwTrjoADhYgME7j2h5Hv9ejAC2oa+Rx0rs9Pj4iNFJWi832ZEAHSkuHwUQrsVptEMcJfD8w0IAZBRIzs6w1hKyhlMB0OnNCHzvLZTV5/X7f9Xzn8zmCMEDezeD73CmkBoOB275DzXbxG2ReADp5x9WWh/0GKSWUbmEzMnmhxGGWUUqhrmo3b9A2LRinR0mJVuFkfO7mT6MoghQkQ7ULqWybjjFKAJ2s4wbn7Czqmzdv0DQNZrMZXr58ifV6hcfHB9zdvwbnyj0+BSBZmI1x3Igh7QrdOI7R6/XAWYDlYgPGiLG2rUGadKRRg6qunOjoKwAw8NF3PnZSKks1Ww+zR9ceVa21a9gS5qEl8jS0tqHRH1NXhiFJ+Ou6QpyErtNOjy+gra2c010vSlIING2LthEuVjn0zgHfZ/jgw6c4OR3iB7/9CZ4+f4Ek6WC7LZAksZtP6HYp1t3f38P3Q9jHDADU45CqQd7NIQ3lZJdgUWVEEt0koaERmwfeMhyh9vPzc3z88cdHoNftxdT7XuseitAATtsIeNwywC2GwyGCgI4iCXB880QkCaUbCFnCLimwCwuqqiQlZpIh8ENIQSIdG6/aVmC1WuDZsys8e/4U/8WPf4xefwClGZS2Gd9z9JBtINk2oa1Dbc/B93zEUYIwCCGFNGvBYWKrQNtWaEV1dLLe43H7Ibjf//0/cO20QyORl+EoBq5Wa0Rh7BhTmySswdOEtqDa4TTfD7FabvH4OHdjm1Luvdqyw3aBlC2VHh8fDaAuUNUNBsMRfu/3/nN88sknCHwfoU9BPgwDV1XQ0r8Q0oydSyFweXmFfm8AIRQWC7qhds6LnrDUuIG5zXbjEs3X9hysRUfDE/yjH/0egP3uODvtR8962Mu6sjRzZZTW2q0ks5mYFh3AxTatNXrdAU5PzlHXNSUM38d2u8F8PneYyxrOPqqUqoQCq/XahQ/LJv/hP/2nCAMf3OPYFfREtzynUPDq1StEYWRCj3SLszjjZqy9wny+dGQDAKf/6/Uovtrs/vbrwHAcAAdjGj/+8T9Bp5M7A7169YrclGmA7etYz4BS6zF2RYXd4VtWhctwbsW3eQpJ2woMBn14XmB6Dr7j0OyEtRW7WJ4uS1NIITB5fMTPP/0UO6NI32zWUFKbIp07byb9naK5MzOrYGkwm0RGo6Fb0aG1Qt3UkOa4UwM+cWXhewx3/ErTBP/Vf/n7riKwOyZhngin9X6f+H4X3F5zYucW7AXalB7HMYTpTZA+zkNd0cx8r9d37DFjDPP5/Oj5DfQ7tatYfvKTn+Av/uIv8NOf/hSDwRBxHLunhljNhyUM7Jh8UdCsl5TKCa0JOFfIc6KYVqsFPN8O5mm6saal8N6sevhiDPid3/kdnJ6cwa7hNocc9ilHWksUu/Jou4PVjhDAbRz0IP3GAFGUmHUWBJBnsxkAwG7usgW6lDR3b0eLaKUGbesaj8f43ve+h5OTE1xfX7vehs3Mm83GxUTrKYdVRafTMWvUlggC381tWRxJvVuOxXyDupRom/aINfoaw+17CX/wX/+38P0A3/rWt6j4h6aFJoJGd6xqHIBTW9JdW5n2nXJKJgCuc356SjIH292fzWaYTCZOIWQbOnaghMTQhBFfvnyJn/zkJ/j888/xN3/zN/j888+x2xXg3EOedzAcDnF6eup4ucNn1th5L8vLbTYbTCYTSnTrFZqW4m6xq5GlPTPG5Bs49RuP6n5B1Xe+/RFePP/AnXcl6Q85Hz2Nw7IIABwqT9MUURxhty2wXG4QBAnqSkCK/ffaIx0EAc7Ozpx32X0n2+0Wbdu62pVx4Ld+67dgH1n68PBgHo47o5vQI8RvKSz7JKbtdovFYgEhBNbrteHj9o+et8vri2KLNE3Qzbu4OL/A5eU5Pv7o27g8PUcUxri7uzvKqsdL0d7yOs4Z/uAP/hvcvHl90O3a00p2+YBdtH6o16jrFlm3h0GfRn7sqouqqjCbzfD8+XNX1li1JGMMz58/d4IammAW2Gxo53BVk4jHbuDabreGQtfu4Y1WumC3Svi+71hogjQVOh3awfnhhx9iPp/j4uICvveRe7SMlXp0uh3keQdxmrzTzf8Kw+0D4fn5Jb7//R/g7/7u/wXjHJ5rpZHD2rsgpEDb1ri8vEBR0OaYQ/c+fPqkpcEfHh7Q7XYd9Mjz3NWuvV7PfY/16Lu7O/ckEepNBGaTqnb7lywT/OLFCzw+Tsyzv4gRsXP7gMb19RWkELi6vEDe6aDf6yHJEnR7XeRmnQcARzzYIePfaDj74pzhH//4n+DXv/oc0Bww/QUhJNI0wevXrw1ItEvcG6KIktj9UsuTVVWJOI7cUr7RaGRUSFtMp1P0ej1MJhMMBgOn+o7jGMPhEG3bOvmpJR6+//3v09R1f+SMm+c5PvnkE2gNnJycmv6IMg/xyZAmMdIkQa/XRa/fhW/il8WG9kjf3VGDu9/v47vf/S5OTk6OHOE3Gg7Q6PV6+N3f/Uf42c9+6jzgyy9fIgrz/eONPQ+cU7Fsj4bFe1IK3Ny8Qhj5iJMQZbVFHI8dQ2zxllI0zmn3MgHAt771LSyXC5yenYKe6ha6mS6AoZv3TUKhuGYfF5qmqftDSgEfrWwhtYCSEk3bYrFeYbNem3o6RLfbRa/Xw/n5Oc7OzhyT/b7XNzAcqc5/+MMf4vPPf4W6JmX3hx9+B5999kuXBVvRoG40xiPPHb0so3ackDXOL05NBiZF0Yvn38JyuUSv18NoNEIcx3j69KkboaSdbTQrm3fJUFlGE4VZmsH3CeqkaeqWJti242FZWDc1Xt+8ome1Mo00TdDp5BgOBnhyeYXBYOAegPbOO2fvwSH2c0qpvwLww9/kdVoDn3/x9/izP/sz/O1P/w63t7d48cEz/F9//v9gtd7QTmBwfPLJJ65xcnV1gdl8iovzS7d4rz/om9KHu56pFUd7HkecxMZLOrDPmk7TFHknh338yiHZaokC670AAfg0S5AkMQaDPsZjWlxv49Y3McxXWoIIUPYNPM7+EuCDFx8iChN4nB4f8Omnn+Ly6gLzxQJxlKDT6SBJY5ydn7lpnPH4FEK0CEIPUZgj8EOnbwujEGmaGM6/4+Relr46lFtMJlMIsV9/FgQ+sk6GvNPB5eUZ+oM+BgMiKt93vP5djPS19vhmHgcnc9VaYzaf4l/9qz9FWdb48z//P90jjweDIZ48vUZuVgNRGZSYDhYHg3kiMNvLKChDath1FW0jjEgxRJrRke11u+j2uhj0B8iM1IvYnHcngv4hXpzzb+hxB+0xxqgw/sM//CP8yZ/8MThn6Pd74Jzj+fMnuLy8csoha5i2peEQW03YRnWaZOjkHXTzHN1ejn6/71bYvm2Ew38fduLe/tw/1OubGY4d/4PBQ5Z18Ef//R/h5PQE/+av/9rUh/RcGs/zEccJ8ryLPKenX/Z6XfT7Q2RZeuAxxwqgb2qA/xCGeucavvFRfc9r/6b3q4Tep160Bjr8+z/mFz98Ps1/ev1/e/1bGTEGQIFjE38AAAAASUVORK5CYII=;rotation=90;" vertex="1" parent="1">
          <mxGeometry x="1340" y="269" width="32.5" height="50" as="geometry" />
        </mxCell>
        <mxCell id="ZBw0nQ9lH2d1jffSdDRH-93" value="" style="shape=image;verticalLabelPosition=bottom;labelBackgroundColor=default;verticalAlign=top;aspect=fixed;imageAspect=0;image=data:image/png,iVBORw0KGgoAAAANSUhEUgAAAE4AAAB4CAYAAABcicStAAAACXBIWXMAAA7EAAAOxAGVKw4bAAAgAElEQVR4nO29Wa9l2XEm9q21573PPvOdb05VJKtYJCVDFFuG2XYLsg0YLfmx/dzon2H7lxiw/4LRb4akfhAtWG5LalG0UGRRZFVW5s07nXna4xr6IdZa55zMrGK50VCjjT5AVlbecZ/YsSK++OKL2Ewp9VcAfoj/9PrGL8454/+hL+I/1tf/LwyntYbW+h/0d/rf9Au/6sKY++/x5/9d3gYZQEEpDaUUtNbwAx8e5+43/abvZ+w3f92/j5dvfyGgIYWElBJKKyipIKSAEAJSSAhp/m5btKKFEAJt20JJBSklhJBo2xab7RpSSHCPo21rKCWhlIIQ5mdJCa0VWvP90n5cSdze3mIymaCTdXB2fg7GgcAPEccR0iRFkiaI4wRJkiNNUyRJiixLEScx/TtOkCQxgjCE7/vgzHvvm/73YVzjcQr/8l/+7/jZ3/4t6rp2rn94BBhjYIwdeB6D/f10IRyL+RJ/+Vf/GnnewUcffYTxePwVF05/wDT9HNDPXS1XSJMMbSvIZRVDUzcQdYPtek0fY5z+YgxaM2goUKTW5ho5PM9DFEVI4gxBECNJYsRxgl6vhzRNnNGTJEGaJIjiGFEUwfc9cO4dXefBVR+/B6XUX7Vt88P/7X/9X7Db7bDdblGWJZRSzlic8yOj2Ttm/835u6HSfs/x11tjMzC2P8z2iNk/x0Zm4AxgZC5IczPtzTIWBmMc+iBAaGgwcDAwQGkwAIwzaKWPLMIYg+IAYxph5CNLU4Rhiiwjr07TDFma49vf/jaGw6G1B3MxzvM8ZJ0O0jRF0zSoqgpFUaCqKkgp4XkePM8D5xxaUwySUsL3fQRBcPRmDw1xaDiAQesDj9NkDM4Pvs45NHN/MXu/GcBBHud5HIwzeJw8DAA4o2sENzcOHGCABwbOGJjxJjKwBmcc4AzgdK2e58EdKA0URYWiaPCg5vj7X/0K/8M/+2cIwxAA4CulzEUxKHORcZIgSRIMBgNUVYXNZovtdoPdbue8yXpZFEVI0wxhGLk3H/g+PO7B8z1ncMYYPO5R7OEc3OPAWx7seb676EPvUYq8zPN9SKn2YQTCGY180txUBmil3e9nAHzPh29usOdzcM7gwUMYxWCMg3EOPwjh+R6gGfxg7xDFrsDf//LnWK1WOD09JcPB3knOoaUAOINQEoHvg2mGJMmQdrp4nqSIQx9lWbjj/Mtf/j0WixXOTi9wfX2NbrcLz/PQtu3R0dYaEEJCcqAVyh3jIAjAjccopcA4g+/78H2fDOV50NDQHofv+2Ccg2vA8z1IaHBOH/fBEfgBOPfBOAM8Du55CMzPYYyBex6YAhjjUEqhaRp3fUJI1HWNqqggpYISCkrRdUql8HB/i6bdod/vu5vp2zvOGAPTxoAApFTweQAFQEuFNMvQyzOkVYLrq2cYDoeYzZb4v//iX+PzX3+J6+sr/PZv/2e4uDhHFEXOK6Moct7k+x601giCAFpr9zVSSnMN5Jk2VJRlDc0YWiEABkgpIYWA5/suQUBreNyHz30IIVwIsSfDxmillDmK2nmpDTNRFCMI6IYFngduPE1rgHOGBwDb7e4oJJHhQMcImkFJbX4hB46yKBnzf/yf/mf883/+LxDHMaQUeJjcQ0kPrdAIoxR394+wGZcxBqXo55GxFBgYwjAC97gzXhCE4JzB93xwE0etN3meZ7wwgOdxQHlQrQZjHH4QQEOBgztj+b6Ptm3R7XYxnU7R7Xax2WwAAGEY4vHxES9evMAvfvELfPjhh3j9+gZRFEJKidVqhfPzc/ziF7/AJ598gr/+63+Djz/+CH/8x/8H/vCP/rujxGWOKnNxiGKKMkkAEEIgNLiIMR/QPgb9MfyA4/mLF9hua1RlA6kULq8ukKYdRFGEKCLDRpEPxjiapkGaptjtdvC1hmwllsslrq+vMZtNkSQJPM/D4+MjPvjgA9zd3SGKIjDGcHNzg+9///v49a8/x2g0xHa7w3Q6wUcffYxPP/0U3/nOd/Dy5Rdo2xbn5+f47LPP8IMf/ACvX79Gp9MBADRNi9PTE0wmE8xmM6xWK8xmM3DuYbfbYjweoyhKPD5OoJTCp5/+HIDGy5cv4fs+mqbF4ctF471jcXge5TGlFB4fH3F1dU1pnMIhfv7zn+PXv/4Cn/3y54ijGAwcQrSoqxq/+tWvsdms8cEHH+Dly5c4Pz9HURSYTqf4+OPv4vb2DYIgQKfTwWKxwHK5xHK5AGMM3W4Pq9USi8UCVbWDEC36/TG22y3+8i//Ek3TYDJ5RKfTQV3X+NWv/h5NU+Pm5jXqugGgsd1ukWUZ1us1iqJAnudYLJbgnGE6neLLL1+h3+/jiy++wPe+9z1stxt4no+6rlHXFQaDIYpih04nA+cMnO8z7WFlwilt22Nl4x23iQrb7RYcDJx58D06OruiQJZluDi/gu8HCIIAcRxjV+wgpUCaplitVsiyDHVdI0kSdLtd7HY77HY7KKVQFCVmsxm0VphMJmjbFqvVEm/e3CJOAtw/3AKMY7PZYD5foNvtoq5rc/cbKKUQhqGDEVEUulgdRRGEkEiSBG3bYjQaIcsyRFGE6+srlGWJ8/NzB6s4Z8iyjonNDEVRwvd9bDYb+L6H9XqFKAqPPM5ZiHPPQQxnWQ30uj14ng+tFKRoEYYhfvSj3z0CxjYTUgKgo2kReFEUKEvKVmVZIIoi1HWDNE1wenqKpmlwcnICzj10u11cXV1CSo2T8SXCgFB+HNORbdsWQRBguVxivV6Dcw93d/dIkgSTyQR13aBpWiyXK8Rx7BJC09T72tf3ISWVhxbobzZb7HZbRFGEtm3R7/fd357nodfvHoWyA8PZEuaYZeCc4fLiHEoJeJy5jOR5HrbbLZbLpStvGCiDVlWNuqYa9fPPPwfnHPP5DPP5DFEUoSgKeJ6Huq7RNA045xBCQGsFISSEEM6jyrIAAHQ6HWw2W4RhiKIoMBgMMBgM0TQNhsMBCnMC4jiCEC2KYgetFe7u7hAEAW5ubjCfz1FVNW5ubtDr9VAUBeI4BkBYtGkatG2LOI4RRSGEEOY6K5dwjmyjlMKh8fb4S4MxQuic0+fCMHQpOcs6ODs7c3cyDENopdHrdZGmCaqqwsnJKTzPQ7/fR5qmzqt9nwz38PCIOI5xe3vrjurr168RRwlmsxk8z0NZlthut+737uGFRNPU4JyjbVuXAMIwwmg0wm5X4OTkBE3T4OLiEoPBEEkSYzweO+zo+z4WiwWkFFitVnjz5g0YY1itVuj1etjtdkjT1IWI9xxVDTAcGc2+LMayR9j36QiGYeCOqpANwKRjTKzHcM7cXex0cjRNgyzrQAiBbreLJ0+uUVU1rq6ukKYper2euxlBELjjOZ/PEQQ+7u/fIAwDvHnzBpPJBEHg4eHxDmmaYbVaoWlqYl7aFkFAuK6qKmitUNeV86LVagXf91GWJUajETzPx2AwwHBIXtzp5AiC0MRQjrKsEEXx+2OcZ2KShSFakycyzqAZILQysIVKpqqu8Dh5QBj5CALfecL9/T0F+DjGarWC53lYr9cuwEopHM1EdFQLIWoUZeEAc1mWiOPYxZnLyyvUdY3Ly2torXFyMka/34PnA1mWQCnpAn1RFLi7u4Pv+3h4eECappjNZu6oFUWBNM1cyAEAIVoXw4qiQBD42O12SJIEWmucn15BiNY5zzsxjliGPXjV9AliJKChtHLEQtvUOD09If5OSYfV4jjGyckYWmtXgnme7wKzBaOr1QovX36JLEsxmU7AwLDdbrFer90FB0FogK09BQpNUyOKAsSJj7JokKWUbcfjMeI4Rp7nePLkCaSUuLi4AMCQ510Xp1arFRgDbm9vHSBmjGG5XKIoCmc8ShTEFZb17h3Wxh1V7jGAqWNmg3CKqys1tLsz3V73gAHhJnFQRg1DCq5BEKBpGvR6XQwGA5Rl6TLVYDDA06dPIITE2ekFwjA0MELA930slytISSD51atXSJIEj49TBEGIyWSK+WyFIKBkFASBK7csIVDXtYl7tQsrvu/j4uICbdu6kHB2doYs6zhYZbNtEPgoih2iKMJutz6KsXvDMUYUi+YAVaeEjxgV1VzD8HPclURaayyXSwNHrOE4Fos5ptMZfD9AWRIe2u12qGv7BqWLo5xzNE0FMIW2bRBFFNirqsLZGSWW0WiE6+trh8cIM6bw/RCe52OxWLpjWVUVdrstJpOJo8fiOIYQ4qhuphhN3sw5Zc4sI2IzCAIMBgO0bYvBYAjOOdK0d8DCwIY0sp3jtA6w3OExtkeSMwLMq9UKeZ472jxNUkgp0e12kWUp0TaeB8Y42lZguVwiiiLMZlNIKbFer/HwcI8s62C9XoNxDikJkoRhaDyfak+Kd+IIjoxGIwAaz58/gxACT548Qa/XQ7fbdV5tT8pqtTJ4ssSrV68RRREeHymj13UFz/MctW+TUlmWkFKiaRpEIZ2EI8MppSipHmROxhjRM9Y1tWFQGXfHdzAYuCJcKY3tdoeqqpEkqUvhcZygaWqMRkNcXl6iLAtcXFwgiiLkeY7hcGhiXwhtcNvj4wPCMMTd3T3aVmA6neKLL75AnnccbiSOcAPGmMGMCgCxKgAQxzHKskSWZaiqCufn58jzHN1uD5eXl2CMo9frwfd91DXRS5vNBtvtFkJI7HY7dDodCNFS+JD1ux5nY5xja7kG4xpay4MvI8qZ2yNtDGoDve/70KDgv16vsVgsTLnTmFJuT/UoJdG2jcNSRVGgk1Eh3ulkODs7Q1VVuLy8QBD4yPMco9HInYA4jk19uwQA3N3dIcsyPDyQobXWqKoKaZoeMc8EsjXiOMJ2u0EUxaiqirKz5+Hs7Ayj0QhhGKLT6Tgo5Hk+lsulY37fMhwcLU6U0J72tljNko3co295eHhAEAQOAHO2j3P266uqAgCUZYnHx0ekaWoAJ5U86/UaWdYxmM9zANmyM3sM2MFms0G/3zew5MpkTODJkydoW4HhcIg4pgpguVxCa2I2wjDE7e0bV8QvFkt3UynGceepbds6LyvLEnnehWhbnJ9dvBO+9nDEBHyYsuuwNqPTSh+3nnN2dmaqgX1MFEKg0+mg1+uhLCv0+30wxpBlGU5PT9G2LcbjMYIgMHjQovel48Nev75Bmqa4u7sD5xzb7Rbz+RydTsddQ9vSG6X4KtA0tWGNgSQJ8eTJBeq6xvX1NRhjOD8/d9BImHr7/v4eaZri/v4enkcnRcp9fPV8H1JJtCb2HVZYB4YzzQwDQWzWpKO1hyjWM61HEf0MaEUdrCAIsNlQbyIIfEeh259DxwXOYHmeY7PZ4OTkFFmWIc9zvHjxHEopnJ+fuzfRNA08z8PDwwOiKMLDwwMmkwmSJMFmszFBvtnfYCh3WpqmQRAErrF0cXGBsqzw9OlTSClxcnKCTiczSYG8fLlcIkxSbIoCYRCiqgtDXhwU+dZjjnsEx8W+9SYArsKYzxdoakFdUdPXBCj7VhUVxqsVYbHdbof5fI40TbHdbokCl7Y0CsAY0LbChAsPUkqHzbrdrkkseyro7OwMvV7PGYNzjt1ui6ZpsCsKfPnyNZIkwWKxQBiGpuzS7j1yztyNJLhEJIHncXQ6HYxGI7SyRTfPiaZX3hGUOTqqcDQRP/Iu21+1XkhOydHvDdDpdExnHqYI1uj3++j3+yjLEuPxGL7vI0kS9Pt9SCkNI0HZcLFYuONS19SOnM2mLivaG0Yet2eSLdnQti06nQ7atsXp6Sk6nQzdvIsnT54CAPI8NwB2Z3oYpQHTKWazOaIoMnGOMnLTNAZRcDRFSaWmaNHr9Q+IXmM4m8o9E5RtH8AGSxusrSGlIoAchqE7qqKVrv9q6Rnr9hbB22wXxzEYY4jjyLHDFxcXhhaKHV1eliUYozLs9WvCXm/evEEYRpjPF9jt9rSQ9SQhW1O50NGN4xhFUWA0GqFjesZXV1R3EtbkWK/XAIDlcmkqhgDFboc0ywCjYVGqxdtqGHPItPM4QB918emi6OJsSteAi2WexxGEniM0d7sdptMZgsDHbDZzR9cWzcTBHXowMwGfUr89zr1eH5wT3nr69Kkrk2x8FaIBIPDweIMoDvH69Ss0dYuqqjGfz5HnHYfvbNixoaEsS3Q6HTRNg/F4jDAMcX5+jtFo5AhZDmCzXCIMA6zX633P99BwljqnN8JdjNsbD45NPUwcJ6cnkEpAiH2RPxqNMBoRPTMYDBBFETzPMziICmgiMVvc3t469kII4tdWq5UhN/fCHgAuyNd1jW43x8XFGaq6wvnZNdqmxdOnT9DpdI5IR0omIW5ubrBcLqGUchnavhfOPXcS7OnKMgLwtjrp9rpfwccxuKx6aLBDbYiNN/RxhX6/h7Zp4PshYDQhtkcKwN1t+z30psmYSZIgikJcXz9BXdcOg2mtnWfe3d2hrmsURYGbmxvkeY7tdksNb9Girhv4XgTGuAnyIbQmgHx1dYWiKPDs2TN4nodnz545GGTf36tXr5CmGW5v3zjg3rbCJSUKL0BdNwj8AFKK9xhO73Gc1XHY2GF/gPM0DQcRVquN0Wv4EEK6mDGZTJBlmaGw4Trn/pEkgsPzOJqmdZkxDENcX1+jqip88MEH6Ha7yPPcMBkaQkgEQYj5bIbbuzfg3CPGOE4wnU5RVURWlmVJnGFVYbcrXLjwPN+QCPXR8U/T1MQyiuWz2QxZlpmbGEOI1jWwjvg4DVNOcQ4llfsCm7YPcZwfENBcrzcYjYam+BcIAh9KKYxGY4xGI8P2ZgjDwL2ZJEmxWCwNW1Lh/v7elFArl0Vtcd22AnVdO1ajKHbI8wx1Q8zJxfmlgyaW66Me6Q63t3eIohjT6RRRFB5oXpij7j3Pg5TCFfj9fh/dbg7OuetnAAT415sVgsB/t3IgCZQ5tfxY80Gehz2Y1WTM09PTvXISynX9PVOSWSpHCIEoitDt9kzZ1EOWEeDs9/vQWrkyraoqPD4+Is9z3N/fuyy9Xq9dp0uZMsnzqFuVZRmapkG/30eSEJH57NlTCNHi5OQEvh84b9put3j16hXiOMZ8Pndlof09hC8l/MBHVVWOXrJ9isNTyC1281zQP9aoEU7TJE+A58ArANN39AHNIU0sE4IopCShho11fytTPYydtkfa7/cRxzGSJMGTJ0/QNA1OT0+RJAkY46Yz5uPu7h6ce3h8nOH+/uGInrcwiOpN4Vp/VVWaZlGGLMtwff0ESimnHFiv1/B9H/P53JGxom0Rm1ahMmTHO7SSi2dOHKhdg4bYhBic0RHel0/SHQPqTShXqoVhhF6v53oASinUdYPFYo5OJ8dqtTqIQbWDB/Zr6U1XDnyHYYCTkxOUZYknT54YsnOIfn9gDFMZGurOZezpdIosy45CDNH7DElC2I5oI4GzszMEQYjxeGwIB0lhgzFMFwtkaQ9VVX91X9U3Sh7jhu5vIcSBUeFS9mg0QpqmADMyPZN1fd9z3mYZ1SDwMR6PUdcVhsMhut2uCwFBEGC93jiW2NJETbMHzvaI2IBPRz9HXdc4Pz9H07R48uSp8dzEUUq25Lq9vcVut4MQAvP53BlVSmVakIW52Qqe5yPP6foGvR7apkXbwMGR4+RACNdYlB14i3REpgXB1kAUH0pq3miKfZx7TsXp+8E7ePCQZbDgtmkaXF1dYjAYII6p76k1ZWEhBHa7Hb788kt0u13HmGw2G6zXG1N2GRG2pGTCGJCmKcqyxMXFhWGHn6LbpR6JpZBubm6QplTP2mu1N1MpysIaFNt7vfwoMRx5HHfQQ+2hhxEM78XK2n1usVhQOaXhUjVgtW+A73uYzWYoyxJVVWE+nyOOiTy0XmNvkIU3AOnoyrLEcDhEGIaGMXlhGtwnrvZcLhcAYPBY4jg4K0e1P79tW9cLjqIY5+fnaNsWL168gNbanArfUet1XWOz2aKTdKAEOZSUewnFO4ZzL73PiDbuKAM5aAZBQQqJOIkwGPYN/lPmIgWiKEaWpU6jZo+rZTMOG81EZGYOg1E9WzoQarOcpchtXByPx7i6uoLW1HOQkgQ2ALDb7fDq1SsEQYD7+3uEYehYGq2V+5m2WU0Vg4dut+fo9CRJoJTGbDpDGJLc453K4e3C3gb5Q0bE930oLVxVYCEG1ZcePJ+oJd/33FyD/UX7aoPufhRFCMMQSimMx2O0LcGGNKW4Q92wEA8Pj4bRqFxpRsYjOGSPqDWAvUFRFOH582dOzBMEgQPGu13hYijJGgIDyElSUdc1lNYmBDQ4OSU8GkbRV0kg9vhEScDjAaD3NasG4PHQtOQ8SEV3bLvdkm5Oc3C2p72pUUPUUFmWAODKJaKJWtf82CvaqVwbjUYoyxKXlxfI8xxhSN4KwDWMJ5OJA8+bzcYRlZZytwQmNWNqnJycIs9zJElskkmD7XaLMAyc3KKuG0itwYIAZVMjCD0AGlIJhKH/boyjX+QE8QZRS2c0K3DRpt/KOcOf/umfUCbq9ozwjjr8lKWI2bXN3m636zyQGb1bXVdo2xaz2Qy+72O7pYxKnkicnzUq55Sld7sdTk9P4fsBRqORAeDK1cHT6RRlWRrx4cTR9nR64GjxJElMfTyClNKBW2ZuXF3VroNWFMT82ib3e+GIbcJY7zv8Qgrigvqq3EOWZRgNTeeJKSgtTfAk49rMa8G1BZx1XaHT6Zh+rEKapo5IBCiDTSbU1CG9Gx1NGxosa5IkCbKMvtdq7J48eeoyc7/fh1IKi8UCURRhMpmirmvDRheO+/M8H2AMZV0jikKEQYDYVDkNNFqlwBC40/LOUdV4dzrGGs12gpixsed7+NGPfgTPI8pZSTqq1tj2GNgMar2irhsTm1rHyTFGuCzLMiRJgjAMXeUwHA6RJAmEEE7dOZ/P4fuUAdfrtWOgLRcopTIyWVJGnZ9fuL5CmqamH7uG1tpdY10TuNXGq4SkObSyLJElCaqqcDTUkeHebkgfnOGjtiAdIQ7f8wHNMJvNkSQpfD8A6YU1OCdu3pKE1D6khLJaLV1PlNSUHNvtxsUje4OscZMkcQX+xcUFmqbB2dmZw1yWVH18nBhWeOZUS7a0szU2ABcu6Lj7uLq6hNYKlaliNpst6qYB4wxCK+IROYeGcLDp0KH2fdUDgrIoCjw+Ph5wcHxf8HMOpRW63a57o/saVDmKyCYJgKoDe6TOzs7Q7w9cHI2iCKvVGuv1BlJK14egpOGbyiNwF2+P+3g8RlVVuL6+glLS1LVEtVuK/e7uHlFEtJDW2g2/2dGopmmQ5zk44+jkHYRRhKqtUVQFWimw2K7Q6WRQSn61dsSCWPvv6XQK3/cNc6v3WctUAWEYOsYkCD3HijRN4/RtdkLGBnCrQaFmM/VgqakzwnA4gNbalWObzQZlWaIoCrx8+RJJkmKz2boMSsDWd5BpOByh3+/j5OQEn3zyCXzfx3e/+zHSNEUURabXwbFcLpwxLPFaViVaIVDVDUI/xCDvgyuFzIQK27V7b3Kwb1xKKnItaDwskSymAwho2mNAjAo/6rnarJymqWvsWE8izW7q+qz7coc7pfj5+QXG4zHSNMXTp0QT2WM/n89xc3ODIAgwn8/BOQmkq6p2P4vIR4a2bZDnXXMdAfKc9HQULwOsNhQulNYIwgAe5xBNA0iN0A/R1BI9c7qOPA7veaVpimfPnh01k7WWboyPgTk+zfd9mjfFniqyyu48z92Ahj3apCjKTTffQ6eTQWu6YZ1OB0EQmj4F9UotV7bZbJAkCaSUGA6HOD+/cEMbnsfx+eefYz6f4+HhAZ999kvXPrTCRCvOiaIQdV2bcEF9W+552Gy2KHY7NHWNum2BwIfQAGAGn9/fyccRAxLHsWNWbcbSkE6xRO29eK8PZtrESLjqgsQ22unhLAVkKwcppSvDut3cdcBev34FpRQ+++wz5/WbzRaRmfKzXh4EPpqGFFEk0rlCt5sjDCNEUYiyLPGzn/0Mbdvi8XFi4JHnsqiUAo0QEIqmtWksgCT+UBpNVWM2mYCZnutXetwhZrN/rJXpSDHzbw1pyqrD46yUcOVQVVUIggC7HY1r+r6HpildTLFg1HbGrFdttxv0ej3UNQmq87zrEkIQ+JhOJwAoeW02G6NdYbCzY3QjgTzvoigKNyJpIdJyucBsNkcQhKjqGkFoko5U8D0PSgj4nCP0PUS+j9PxGFrL45L02HAHrUAOI2vVLjtyTuJqbZgQrTTW6zX6/b4REDJoCACUVdM0dV32OI6htUYYhY6FKIoCWmtsNmunCTmcOyDayndx15Zh4/GJ8XQiR4UQePPmDaIoxHK5PGh4w8Va+lhkKgCFJInRitYF++VyhSD0UVclOGOIgoBmXTkpTe2Ezlfo496W6u8bxY6b0y0Yb+nOKIXhcEh8HdfuR1nhDQX8/cWTLiREXbdI0xTdbtfxdtpwfdYQt7e3Bu8tTMPbg50r833P8GNd1/l6+vSpo5EsFf7y5UvEcYL5fO5uhBB7vd98Pgf3PNRNi+FwgMCMWkmpsCkLbHZb6sC15OnAPgQ5wzl5w9sS1gPmdS8O1NTN0spM12zQtg2UIj0J5xxFUWK1WiJJYsdvJUkKaS7csiRWA0KBuofBoA8hJC4vr464v92uwKtXXyLPczw+Ph5QQiVoGke4UScCzDGur69RlgXCkOLpw8MDVqul087Zsaa6riHEXiTkRyE1fLodSEVsilIk3fiKo3rcgCZG5HATBCAFwOC5zy+XS8RJQiPlmjYyEK5iGI/HrgNFs1sVqqpGHEd49epLfPHFrxCG1Laz2I6CN8Wq3a5At9tFHMeI4whPnz5F07Su275crvD69WuEYYj5fO7UB7butRnVyr9OT0/R7/cdAy2EwMuXL03VUkNqDam02YDBIFoFKZUjKCzj8v6jyq1KaV/gHzZpiQXRTuRsR4y0GeTnHkkYrM7MSrAsSO10qME7GHZxeXXufnaSJG5Sxja0qUe7l5YR5V0jyzIT8/JI7ksAABvnSURBVIZ4/vy504KkaYL7+3vsdgV2u51riDOjNuKcu7GiPM/RtALXT5+iqmq8vrlFEMRYb3YAPMhWQMkGNPLUQLTiHfBL9jhozBz2CCwNfagVof4DcfJxHEMKaSgXwxCD2nOLxRye56NthTuSVVWiMMfHauA6nQ6KosDl5RXG47G7u1EU4e7uFtvtFkopzGYzA2EMA21gEGl4+yiKAldXVxgOB0dNlZubG8MAryne+j6kUhAmszdNizRJUZcl0jhG6Hsoi61TolOCGzhneifGaa1dz+GQW3feZqghxmg7gjbnnmRedisDQxBQkKVMSiryoiiwXC7xxRdfIDGN4M1m4+Y/iUgkhZBSdDzKssTV1TUGg4GLdSSxf3CN5dlshjTNDuCQcgTpcDh0kMbycUoprNdr3N7eGeamdoxxXZdoqh1EUyLPM3Q6mYFNGlVVozTjUl95VK3s4X1H1ZKC3BT5dV3DDzy3ioJwFGVkz2NOD5xlGdq2wdXVFe0J8Twoc0G3t7eGL5tgtVo6oZ/FY/Z393o9bLdbp/M47JW+efPGqS+tmt2u2CCdXYU8p0olyXKMT8/RtBLT2QKe52M2nQJaYrvdQCpagyQFAfcs7ULIvabvvYZ7W610cJahzECcUgQUpVTI8xy+EdDYJkjbNBCygpA0sXeo/+AeQ9PQRXRy4tFo5oA5nCSlxOPjI7Isw2w2w263c90qe1JoiC3FYDCAEAJXV1cungIMm80WNzevjeinAGMEgIuiglIavpGKnZ+doakrBB5zjZ3Neoe21ZCCw+MJlOJQ0oPvB+83nJVvUnDg0IpBq/3aCXaQdSk5UNAuzFF0BEDgQymgKgnAfvHF55hMHhGGITabNexsQ13vSxg7Q9/pdKCUxvX1NYQQSJLE0Opb3NzcoNPpmAG2fW/Xvhk71xDHEZKEykUrEaPZrwmaA2mEHWyRbQ2P0/6ms7NzpGkHu21BUopGotjtEITM0VJHhrMxwKnOscduzvuMsW2cU0phY1gFAojaZR7fIwaiLAuMxyOjXKpNLAvxcD/BcrFCEARYLBZmUK41HTO6UWVZGTYjQhAEBo5Qjen7Ph4fH/HmzS0432s/LD6ka6LOFvUVFMYn50hT6mxNJxP4nGE1nyEMfPgBhxAK0BxV1YB7HqI4hFItGNMQ7V4b/N6jioNP1HWNzz77bI/tnGqJNm/Z+EVvzDtoKrcOihwWxkppJEmGsqCp6dGIcF6apmbOgQbn7PoMKw07nPip69pJF8bjMS4uzl1Lz/M8ox0hqZgt3+yQiZWhdrIUVxdn0LIFZxp+wHF/f0dZv24ArSHc9GBgkhx7a0rnLcMdAuC3B8IYZw4CeJ5nsI2HtmlQlpWDCHY6+csvv3Qdd5JoxWCmbLIJxjZgqqrC6ekpLi6ow57nXURRhOl0itVqBYBGA6IocrS6ZWyoJztG0za4vr5Gv08Ega0O7u/vEUYBpKogRAUtJWD6It1ujqqqcX52DsY0lss5lNaYz+fYbrbGixWs9Pdr2RFr1bZt8erVKzcirtTBzINhg+u6QWNGuOlIc9eBt+vCwjB0TPFkQr2ByWTiEoDdb8S550IAdcMaXFxcYDgcAaAxdhoMuYVS0pR1KzObwKCNxqVtqRa+uLhwc1q+72E6maKuGtR1hfV65XaKwISiVlQYDYcIAuria2gU5Rbr7cLVx2+/3rsFIs87+PE//rFhGeyfvccISa2/LEvd3T9Uq1tWIjFbwaycijFgMBg4sc16vT4w5sRBF5t8lCL6ieYmCjx//gHyvAs76y+EwJevXiI20i3XkWMUTuI4Rl3VODs9R5Z1XLIrygKvXr9CaHg7rTikkqjrAn4AUIKWiOMQ2+3WIYP3Go67xKDBONDpkITLUky2FrT8VRzH0Abn7YlKEthYsV/btm5dBu0dqYw2I0XbCpycnEApiV6viyyLnLaNpqEfzQwCGYH6ogR+u92uUSK1uLp8CiWpvrWj47bLT0JDgbYlb+OcU7NcKoxHJ5BCYz5fmlGqtQs3SklEhgbjnB/NrH31UT3YBuHmHXC8HoeKZYmyKow4Bqbn4DtJAxXjSzOayVzwJyMQR0Y1ZIk4CZFmCewMl9UPk3aOCvper4/Vau00cnR8iGWu6xqDQd9BmDTNHEWVJDFJNbRtmMNxbLWBIZwzowvmmM2naNraycy+6vXe5HAIRWjxp3I9BXtMiqIETbEksLVcawriLMvcaorhcASlSN7vB8TtWzz28HAPz/OMqLB1INiOhFtD2CZ1GAZGvrrGmzdvnFfZG2yBcLdLDemnT58C2C/cspOINABcmzKtdpQ+zTjQDdtu19jtto6I/VrDWZbTxrK9KBBuHJMzBiGF6R3E5mtglgAU7s3bn6O1glQ1/ECjrnfodnM3d2+bM5v1Fps1FfTT6RSH40yWYbFJxzaVT0/PUBQF5vMFgoBUl1Y5YJOO5e2SJDUxOXNT0w8PD675A5BoXGlpFh/QzL4VKH5tz8G+Dr3uEAiTuJA0Jm1TgXMGKYVTENmZ0bqm6Zg4Jrk8TQ3G1CUDsbj2ptDoeYuT01Oa2GtbI4eI8fg4cT0NCy/Iq4gUsGt8bFPJjrrvdjtTv6YOuliFpz0NAMPl5SVNG+52lHmnj+CcaCj7ccvdWUz4tTGOYc+SWENaSl0IwkFCtqjM5pgsy4hSMroyxpibc6AM2kXTtNhsdgiCCLMZtfDSLEYrSghVQMrGYC3h9i9dXJxjOBw6kpM2PTy6YQ+7Jcxq2bIsA/c8dDodPH36FHVdGSkX7Rax78kyOkopFMWOOm1KIIpo/PPh4cGRoFY28bYa89jjmNmOejANvafVPWizIo3WQFKvMghC18yxb8ju57BreoIwgGgFhoMRtAL6/T56vR6qaofFYooopM0Qj48T5N3csbnkKUSgWrnDyckJwjBwtJKU0tXCVVVBG4Bs9SjUF1EYDEgWu1wuMZ1OEQQ+qqp0M6i2itFa4+TkxA0Q7xHBfk3SseHe2gJx6Gn7qoD+HRjEbps6NvPQRAypJKfTqZu5KssCSZLB86lZEwQ+wshHK1qMxzRk0u/nyPMOmrrG3R1toJlOZyiKnZvYEUI6SUQcxzg9PXXHCGC4v793e5RoiidxsZGUogq9Xg/D4RBVVRkMGdLWQkOZWQPZZrpVgX614czH7MoMazzXEjuoKqRSeHh4xBdffAHSwpHElfQZtNqn3+/D8z2H65TWeLh/AC14Kmn03Ey82IUHJH2ocXF5Su1E0/MsyxI3NzeuA2+vy8osqJFNpCX1CEjCBezXANkKyPKNVvplDez5AW5vb2G1xodA3iaJr29IHxTzh17HsB9VCoIAV1dXePbsmVFRmk2lzH6fBvdoNY/d0FVXND1Db6LGbrsFY8zsqORoGhoKCUIfjJH39nokZvY8D6enp5CSyEallJM6WB2yveamoW05ditXnuemd7p0k9Y2NlrSlMpEOtZRFJkpQsrodlLnbfnDkeEOPe7QaACgtIZWdvMMAcUoitz6DMYYakMx08BFtWdVNHeFvV2iMjTzrN1u16yqqLFc0gbC+Xzljg3BAM81W3q9nquB7cKq29tb2NVmTdO62tc2cpqGFo7SsaucWGgymSAIA9IBS+XEPjbGtW3r+r4WshwmiKP24NvneB+klSm7yLMs0GSMYb0mhaPv+4giWuVTVw3CIMJisTLF/cFxwX5ztO2rDgYDjMdjNLVAEpMs6/7+3hw57fqedtkVNbVzCCFxfX1twDdht91uh8fHBxf7bE1raSmbMCxSuH+4B+PMhQzL6+1p//Zrinwb4xh7xy0Zo+02BAtaZ2BiSEozAUhH2BbYeZ67zV2j0cgsSyEl+nq9xnQ6dfJ8rSmWBEEAIWvEiYey2uDq6sqRAfP5HGEY4s2bNxCideJr0u0J4700PRiGEdKUJGR3d7dI08Q5wH6nsI+TkxPUdYVuN4Pve5hMSJdiT5D1cnoswtfguENDHbqkojY9KPXu24dHfB1jaFvh0releGzNKoRwC6y63S7G47HR9q4RhgEmkwkWi4VZzeOBaLN9qLi8PEdR0opZ3/exXE0xm98jij1IVZmGETdzFKHzlIuLCyilsVgsHWttOT4pqQFu46TdczKfzw056oNzH54Xvfc0HhnO7hQ5NCJg9pQrBXWA7exmGbu/smkaaDO/ailxuzzK3jFLQdvYMxqNATDXhWpqidev3iAMImy3W1NDhobCbmn8HITLTk5OUFYFZrMZ4ijG/f3d0cypfbNNU2M47DvekAJ/hfmCFi5YqGXn/+3o+25XoNiVULr9DQAY77KcFsPZyeLDr7ESe8vExnHkVEp2/v1wgJawnZklMDMN1kviOEa/N0DTtHj+/IXTsdV1jaoq8eb2FpExmtbSsfx1VWE0GmO7pQrA9jHsKJLNiPb32DVp3ONIEtL3PTw8HEliKekwhEGCOE5RFkRoHDrSkeEsRQ4ca+SsLMIeYbughRa5l04dDgBSSfj+Xjid57lr441GI4QRIXw7GzWbzdyxro18gioQ2mozGJDis9frQymJm5sb2I2CpDNOwTntULfJKssyN9lsExMRB8yMJrUQgpgWO7YE0FYwxji2m5IeqWA4RBojjd8JYcdw5IAFPrawdkfAepvWGlFEJZeVcu12BYLweHDX8nMAUBa076Pf7zuc5fs+1qsNFoZQtNPQVVXSGgwQGK6qChcXF4jjBG0rsF5vISUwmdB2RAth7F5iq3C3JRhjtLZts9m41Y+2xWjnyoj/I/KUnES4r3375T5yKHt4+0xrrZ0Olkqs/bbpzWYLrWnldZLETsAcRRHm87lZRRs41M/Z/vkNttk8PjnBycmJEUgrBIGH+XxumIu94MUC0yRJaXpGKsQxbean4ly4VT82cVkiwvd9dDopojhws/+He+KIdwOur6/h+567+W17HDPfe1QPn2/2tvdptddwKCXNeE+FPO9hL/HiRplEnXq7Z6ltW2eEzXZDuo+kAyEUpKAxTlvUkxxLmuUECXY7O7cQOg+xsEJDotPZjyZ1Opmj3+12bNtntTs6adYhcZLZ+/t7RFGCphEQLY1cAcwB/KYt0LbvMsFvzSHt/9d63SFLcjj9YgfUbPzz/RBlWSMyi9utzteOWA6HtKjzkNpezEm/UdeNWyFraZwoiow0wncyB9od4mGxWGCxWJhZioAem+L7jhy9vLx0N8vCHXskLe0eBCHaVqLfHwIamJiNr2EYuepDSonAT74ZjjtU/7x9jA/LD1v6WAkEQBlWKu2mAm1Bb72xrhskSYq8Q3uPLi8v3YZ8q1C3pKU2/c8wDFzjh7ZEe25LV1mW+PLLL+Fxz4137nEk7UG3M7K+7+P+4dapN614O0kyCKFweUlPClguF+aINiQr0/uFVF+ZHDjjR0fUJoS3495hhWG9CwBN3Zk1QBZ5Wxnozc0NXVAjUJa1C9hlSV5CM/PA6emZ0ZpssN3Rpi07/qi1dnR6lmXgzMPTJ8/AGBzItY/I2pOcrSFbJc7Pz92zHm5vSXStDjR3lm0Jw9AtjvE4rR76jUf1sJu1t/B+0QHnNKUnpTqQzHODgxRC81wFW5QPBgO3rcF292lPOelwbYbeVyQtmoa6VoMBzXxZwy0WCwoP5hExtDBGo64bnJ+fIc9zB2aFEG6rITmAMDV2gDhOMBiMUNeN+ZoUed5171GIFlknRhRzlGXhSs33Go7ooz1WOxYYSgi5R+VkKM+xIxY8Eq/P3bofl1yYgkaNVpBEazweG30GxZTtduv6FHb7Kff2g8dnZ2ekyc37iMIYi8US8/nCxU8AjjLKsgy9XteRCFqb0BHsIUgUxa4vTO1B7jg8KVsjYZWQAojj1E0HvddwhxoRCztsYlBKmUev6KNjapcTW2MSI8HdkO98McN09og0jdCKGkrv5//tQuSmad1CZNvoiaLQdeaDgB53IMwqSCmlUwPUdY3Xr28cLW4FifZGWo/t96nkmkwmKIrCOQWRobS5x5Kwe9kajHRWuML/K48qP1Bv23Jpv3pHom3lQfwTrjoADhYgME7j2h5Hv9ejAC2oa+Rx0rs9Pj4iNFJWi832ZEAHSkuHwUQrsVptEMcJfD8w0IAZBRIzs6w1hKyhlMB0OnNCHzvLZTV5/X7f9Xzn8zmCMEDezeD73CmkBoOB275DzXbxG2ReADp5x9WWh/0GKSWUbmEzMnmhxGGWUUqhrmo3b9A2LRinR0mJVuFkfO7mT6MoghQkQ7ULqWybjjFKAJ2s4wbn7Czqmzdv0DQNZrMZXr58ifV6hcfHB9zdvwbnyj0+BSBZmI1x3Igh7QrdOI7R6/XAWYDlYgPGiLG2rUGadKRRg6qunOjoKwAw8NF3PnZSKks1Ww+zR9ceVa21a9gS5qEl8jS0tqHRH1NXhiFJ+Ou6QpyErtNOjy+gra2c010vSlIING2LthEuVjn0zgHfZ/jgw6c4OR3iB7/9CZ4+f4Ek6WC7LZAksZtP6HYp1t3f38P3Q9jHDADU45CqQd7NIQ3lZJdgUWVEEt0koaERmwfeMhyh9vPzc3z88cdHoNftxdT7XuseitAATtsIeNwywC2GwyGCgI4iCXB880QkCaUbCFnCLimwCwuqqiQlZpIh8ENIQSIdG6/aVmC1WuDZsys8e/4U/8WPf4xefwClGZS2Gd9z9JBtINk2oa1Dbc/B93zEUYIwCCGFNGvBYWKrQNtWaEV1dLLe43H7Ibjf//0/cO20QyORl+EoBq5Wa0Rh7BhTmySswdOEtqDa4TTfD7FabvH4OHdjm1Luvdqyw3aBlC2VHh8fDaAuUNUNBsMRfu/3/nN88sknCHwfoU9BPgwDV1XQ0r8Q0oydSyFweXmFfm8AIRQWC7qhds6LnrDUuIG5zXbjEs3X9hysRUfDE/yjH/0egP3uODvtR8962Mu6sjRzZZTW2q0ks5mYFh3AxTatNXrdAU5PzlHXNSUM38d2u8F8PneYyxrOPqqUqoQCq/XahQ/LJv/hP/2nCAMf3OPYFfREtzynUPDq1StEYWRCj3SLszjjZqy9wny+dGQDAKf/6/Uovtrs/vbrwHAcAAdjGj/+8T9Bp5M7A7169YrclGmA7etYz4BS6zF2RYXd4VtWhctwbsW3eQpJ2woMBn14XmB6Dr7j0OyEtRW7WJ4uS1NIITB5fMTPP/0UO6NI32zWUFKbIp07byb9naK5MzOrYGkwm0RGo6Fb0aG1Qt3UkOa4UwM+cWXhewx3/ErTBP/Vf/n7riKwOyZhngin9X6f+H4X3F5zYucW7AXalB7HMYTpTZA+zkNd0cx8r9d37DFjDPP5/Oj5DfQ7tatYfvKTn+Av/uIv8NOf/hSDwRBxHLunhljNhyUM7Jh8UdCsl5TKCa0JOFfIc6KYVqsFPN8O5mm6saal8N6sevhiDPid3/kdnJ6cwa7hNocc9ilHWksUu/Jou4PVjhDAbRz0IP3GAFGUmHUWBJBnsxkAwG7usgW6lDR3b0eLaKUGbesaj8f43ve+h5OTE1xfX7vehs3Mm83GxUTrKYdVRafTMWvUlggC381tWRxJvVuOxXyDupRom/aINfoaw+17CX/wX/+38P0A3/rWt6j4h6aFJoJGd6xqHIBTW9JdW5n2nXJKJgCuc356SjIH292fzWaYTCZOIWQbOnaghMTQhBFfvnyJn/zkJ/j888/xN3/zN/j888+x2xXg3EOedzAcDnF6eup4ucNn1th5L8vLbTYbTCYTSnTrFZqW4m6xq5GlPTPG5Bs49RuP6n5B1Xe+/RFePP/AnXcl6Q85Hz2Nw7IIABwqT9MUURxhty2wXG4QBAnqSkCK/ffaIx0EAc7Ozpx32X0n2+0Wbdu62pVx4Ld+67dgH1n68PBgHo47o5vQI8RvKSz7JKbtdovFYgEhBNbrteHj9o+et8vri2KLNE3Qzbu4OL/A5eU5Pv7o27g8PUcUxri7uzvKqsdL0d7yOs4Z/uAP/hvcvHl90O3a00p2+YBdtH6o16jrFlm3h0GfRn7sqouqqjCbzfD8+XNX1li1JGMMz58/d4IammAW2Gxo53BVk4jHbuDabreGQtfu4Y1WumC3Svi+71hogjQVOh3awfnhhx9iPp/j4uICvveRe7SMlXp0uh3keQdxmrzTzf8Kw+0D4fn5Jb7//R/g7/7u/wXjHJ5rpZHD2rsgpEDb1ri8vEBR0OaYQ/c+fPqkpcEfHh7Q7XYd9Mjz3NWuvV7PfY/16Lu7O/ckEepNBGaTqnb7lywT/OLFCzw+Tsyzv4gRsXP7gMb19RWkELi6vEDe6aDf6yHJEnR7XeRmnQcARzzYIePfaDj74pzhH//4n+DXv/oc0Bww/QUhJNI0wevXrw1ItEvcG6KIktj9UsuTVVWJOI7cUr7RaGRUSFtMp1P0ej1MJhMMBgOn+o7jGMPhEG3bOvmpJR6+//3v09R1f+SMm+c5PvnkE2gNnJycmv6IMg/xyZAmMdIkQa/XRa/fhW/il8WG9kjf3VGDu9/v47vf/S5OTk6OHOE3Gg7Q6PV6+N3f/Uf42c9+6jzgyy9fIgrz/eONPQ+cU7Fsj4bFe1IK3Ny8Qhj5iJMQZbVFHI8dQ2zxllI0zmn3MgHAt771LSyXC5yenYKe6ha6mS6AoZv3TUKhuGYfF5qmqftDSgEfrWwhtYCSEk3bYrFeYbNem3o6RLfbRa/Xw/n5Oc7OzhyT/b7XNzAcqc5/+MMf4vPPf4W6JmX3hx9+B5999kuXBVvRoG40xiPPHb0so3ackDXOL05NBiZF0Yvn38JyuUSv18NoNEIcx3j69KkboaSdbTQrm3fJUFlGE4VZmsH3CeqkaeqWJti242FZWDc1Xt+8ome1Mo00TdDp5BgOBnhyeYXBYOAegPbOO2fvwSH2c0qpvwLww9/kdVoDn3/x9/izP/sz/O1P/w63t7d48cEz/F9//v9gtd7QTmBwfPLJJ65xcnV1gdl8iovzS7d4rz/om9KHu56pFUd7HkecxMZLOrDPmk7TFHknh338yiHZaokC670AAfg0S5AkMQaDPsZjWlxv49Y3McxXWoIIUPYNPM7+EuCDFx8iChN4nB4f8Omnn+Ly6gLzxQJxlKDT6SBJY5ydn7lpnPH4FEK0CEIPUZgj8EOnbwujEGmaGM6/4+Relr46lFtMJlMIsV9/FgQ+sk6GvNPB5eUZ+oM+BgMiKt93vP5djPS19vhmHgcnc9VaYzaf4l/9qz9FWdb48z//P90jjweDIZ48vUZuVgNRGZSYDhYHg3kiMNvLKChDath1FW0jjEgxRJrRke11u+j2uhj0B8iM1IvYnHcngv4hXpzzb+hxB+0xxqgw/sM//CP8yZ/8MThn6Pd74Jzj+fMnuLy8csoha5i2peEQW03YRnWaZOjkHXTzHN1ejn6/71bYvm2Ew38fduLe/tw/1OubGY4d/4PBQ5Z18Ef//R/h5PQE/+av/9rUh/RcGs/zEccJ8ryLPKenX/Z6XfT7Q2RZeuAxxwqgb2qA/xCGeucavvFRfc9r/6b3q4Tep160Bjr8+z/mFz98Ps1/ev1/e/1bGTEGQIFjE38AAAAASUVORK5CYII=;rotation=90;" vertex="1" parent="1">
          <mxGeometry x="1090" y="270" width="32.5" height="50" as="geometry" />
        </mxCell>
        <mxCell id="ZBw0nQ9lH2d1jffSdDRH-94" value="&lt;font color=&quot;#ffffff&quot;&gt;室内&lt;/font&gt;&lt;div&gt;背景音箱1&lt;/div&gt;" style="text;html=1;align=center;verticalAlign=middle;resizable=0;points=[];autosize=1;strokeColor=none;fillColor=none;" vertex="1" parent="1">
          <mxGeometry x="1066.25" y="288.5" width="80" height="40" as="geometry" />
        </mxCell>
        <mxCell id="ZBw0nQ9lH2d1jffSdDRH-95" value="&lt;font color=&quot;#ffffff&quot;&gt;室内&lt;/font&gt;&lt;div&gt;背景音箱2&lt;/div&gt;" style="text;html=1;align=center;verticalAlign=middle;resizable=0;points=[];autosize=1;strokeColor=none;fillColor=none;" vertex="1" parent="1">
          <mxGeometry x="1316.25" y="288" width="80" height="40" as="geometry" />
        </mxCell>
        <mxCell id="ZBw0nQ9lH2d1jffSdDRH-96" value="" style="rounded=0;whiteSpace=wrap;html=1;" vertex="1" parent="1">
          <mxGeometry x="1140" y="420" width="290" height="90" as="geometry" />
        </mxCell>
        <mxCell id="ZBw0nQ9lH2d1jffSdDRH-97" value="&lt;font style=&quot;font-size: 24px;&quot;&gt;&lt;b&gt;吧&amp;nbsp; &amp;nbsp;台&lt;/b&gt;&lt;/font&gt;" style="text;html=1;align=center;verticalAlign=middle;resizable=0;points=[];autosize=1;strokeColor=none;fillColor=none;" vertex="1" parent="1">
          <mxGeometry x="1241" y="470" width="90" height="40" as="geometry" />
        </mxCell>
        <mxCell id="ZBw0nQ9lH2d1jffSdDRH-98" value="" style="rounded=0;whiteSpace=wrap;html=1;" vertex="1" parent="1">
          <mxGeometry x="1510" y="107" width="100" height="423" as="geometry" />
        </mxCell>
        <mxCell id="ZBw0nQ9lH2d1jffSdDRH-99" value="&lt;font style=&quot;font-size: 24px;&quot;&gt;&lt;b&gt;摆&lt;/b&gt;&lt;/font&gt;&lt;div&gt;&lt;font style=&quot;font-size: 24px;&quot;&gt;&lt;b&gt;&lt;br&gt;&lt;/b&gt;&lt;/font&gt;&lt;/div&gt;&lt;div&gt;&lt;font style=&quot;font-size: 24px;&quot;&gt;&lt;b&gt;&lt;br&gt;&lt;/b&gt;&lt;/font&gt;&lt;/div&gt;&lt;div&gt;&lt;font style=&quot;font-size: 24px;&quot;&gt;&lt;b&gt;台&lt;/b&gt;&lt;/font&gt;&lt;/div&gt;" style="text;html=1;align=center;verticalAlign=middle;resizable=0;points=[];autosize=1;strokeColor=none;fillColor=none;" vertex="1" parent="1">
          <mxGeometry x="1510" y="249" width="50" height="130" as="geometry" />
        </mxCell>
      </root>
    </mxGraphModel>
  </diagram>
</mxfile>
